<?xml version="1.0" encoding="us-ascii" standalone="no"?><svg xmlns="http://www.w3.org/2000/svg" xmlns:xlink="http://www.w3.org/1999/xlink" contentStyleType="text/css" height="539px" preserveAspectRatio="none" style="width:862px;height:539px;" version="1.1" viewBox="0 0 862 539" width="862px" zoomAndPan="magnify"><defs/><g><!--cluster pnet--><g id="cluster_pnet"><polygon fill="none" points="16,6,54,6,61,28.4883,845,28.4883,845,532.39,16,532.39,16,6" style="stroke:#000000;stroke-width:1.5;"/><line style="stroke:#000000;stroke-width:1.5;" x1="16" x2="61" y1="28.4883" y2="28.4883"/><text fill="#000000" font-family="sans-serif" font-size="14" font-weight="bold" lengthAdjust="spacing" textLength="32" x="20" y="21.5352">pnet</text></g><!--cluster net--><g id="cluster_net"><polygon fill="none" points="759,184.46,788,184.46,795,206.9483,821,206.9483,821,261.95,759,261.95,759,184.46" style="stroke:#000000;stroke-width:1.5;"/><line style="stroke:#000000;stroke-width:1.5;" x1="759" x2="795" y1="206.9483" y2="206.9483"/><text fill="#000000" font-family="sans-serif" font-size="14" font-weight="bold" lengthAdjust="spacing" textLength="23" x="763" y="199.9952">net</text></g><!--cluster sim--><g id="cluster_sim"><polygon fill="none" points="40,49,73,49,80,71.4883,735,71.4883,735,508.39,40,508.39,40,49" style="stroke:#000000;stroke-width:1.5;"/><line style="stroke:#000000;stroke-width:1.5;" x1="40" x2="80" y1="71.4883" y2="71.4883"/><text fill="#000000" font-family="sans-serif" font-size="14" font-weight="bold" lengthAdjust="spacing" textLength="27" x="44" y="64.5352">sim</text></g><!--class Net--><g id="elem_Net"><rect codeLine="10" fill="#F1F1F1" height="26.4883" id="Net" rx="2.5" ry="2.5" style="stroke:#181818;stroke-width:0.5;" width="29" x="775.5" y="219.46"/><text fill="#000000" font-family="sans-serif" font-size="14" font-style="italic" lengthAdjust="spacing" textLength="23" x="778.5" y="237.9952">Net</text></g><!--class Tokens--><g id="elem_Tokens"><rect codeLine="13" fill="#F1F1F1" height="50.9766" id="Tokens" rx="2.5" ry="2.5" style="stroke:#181818;stroke-width:0.5;" width="108" x="311" y="330.44"/><text fill="#000000" font-family="sans-serif" font-size="14" font-style="italic" lengthAdjust="spacing" textLength="50" x="340" y="348.9752">Tokens</text><line style="stroke:#181818;stroke-width:0.5;" x1="312" x2="418" y1="356.9283" y2="356.9283"/><ellipse cx="322" cy="370.6724" fill="none" rx="3" ry="3" style="stroke:#038048;stroke-width:1.0;"/><text fill="#000000" font-family="sans-serif" font-size="14" lengthAdjust="spacing" textLength="82" x="331" y="374.4634">value: Value</text></g><!--class Value--><g id="elem_Value"><rect codeLine="16" fill="#F1F1F1" height="50.9766" id="Value" rx="2.5" ry="2.5" style="stroke:#181818;stroke-width:0.5;" width="120" x="305" y="441.41"/><text fill="#000000" font-family="sans-serif" font-size="14" font-style="italic" lengthAdjust="spacing" textLength="38" x="346" y="459.9452">Value</text><line style="stroke:#181818;stroke-width:0.5;" x1="306" x2="424" y1="467.8983" y2="467.8983"/><ellipse cx="316" cy="481.6424" fill="none" rx="3" ry="3" style="stroke:#038048;stroke-width:1.0;"/><text fill="#000000" font-family="sans-serif" font-size="14" lengthAdjust="spacing" textLength="94" x="325" y="485.4334">default: Value</text></g><!--class Marking--><g id="elem_Marking"><rect codeLine="20" fill="#F1F1F1" height="75.4648" id="Marking" rx="2.5" ry="2.5" style="stroke:#181818;stroke-width:0.5;" width="200" x="265" y="194.97"/><text fill="#000000" font-family="sans-serif" font-size="14" font-style="italic" lengthAdjust="spacing" textLength="56" x="337" y="213.5052">Marking</text><line style="stroke:#181818;stroke-width:0.5;" x1="266" x2="464" y1="221.4583" y2="221.4583"/><ellipse cx="276" cy="235.2024" fill="none" rx="3" ry="3" style="stroke:#038048;stroke-width:1.0;"/><text fill="#000000" font-family="sans-serif" font-size="14" lengthAdjust="spacing" textLength="67" x="285" y="238.9934">step: Step</text><line style="stroke:#181818;stroke-width:0.5;" x1="266" x2="464" y1="245.9466" y2="245.9466"/><ellipse cx="276" cy="259.6907" fill="#84BE84" rx="3" ry="3" style="stroke:#038048;stroke-width:1.0;"/><text fill="#000000" font-family="sans-serif" font-size="14" lengthAdjust="spacing" textLength="174" x="285" y="263.4817">marking(NodeId): Tokens</text></g><!--class MarkingFormatter--><g id="elem_MarkingFormatter"><rect codeLine="26" fill="#F1F1F1" height="50.9766" id="MarkingFormatter" rx="2.5" ry="2.5" style="stroke:#181818;stroke-width:0.5;" width="138" x="56" y="84"/><text fill="#000000" font-family="sans-serif" font-size="14" font-style="italic" lengthAdjust="spacing" textLength="124" x="63" y="102.5352">MarkingFormatter</text><line style="stroke:#181818;stroke-width:0.5;" x1="57" x2="193" y1="110.4883" y2="110.4883"/><ellipse cx="67" cy="124.2324" fill="#84BE84" rx="3" ry="3" style="stroke:#038048;stroke-width:1.0;"/><text fill="#000000" font-family="sans-serif" font-size="14" lengthAdjust="spacing" textLength="112" x="76" y="128.0234">format(Marking)</text></g><!--class Step--><g id="elem_Step"><rect codeLine="31" fill="#F1F1F1" height="40.6211" id="Step" rx="2.5" ry="2.5" style="stroke:#181818;stroke-width:0.5;" width="65" x="460.5" y="89.17"/><text fill="#000000" font-family="sans-serif" font-size="12" font-style="italic" lengthAdjust="spacing" textLength="63" x="461.5" y="105.7716">&#171;datatype&#187;</text><text fill="#000000" font-family="sans-serif" font-size="14" lengthAdjust="spacing" textLength="30" x="478" y="121.838">Step</text></g><!--class Duration--><g id="elem_Duration"><rect codeLine="32" fill="#F1F1F1" height="40.6211" id="Duration" rx="2.5" ry="2.5" style="stroke:#181818;stroke-width:0.5;" width="66" x="294" y="89.17"/><text fill="#000000" font-family="sans-serif" font-size="12" font-style="italic" lengthAdjust="spacing" textLength="63" x="295.5" y="105.7716">&#171;datatype&#187;</text><text fill="#000000" font-family="sans-serif" font-size="14" lengthAdjust="spacing" textLength="60" x="297" y="121.838">Duration</text></g><!--class Simulation--><g id="elem_Simulation"><rect codeLine="34" fill="#F1F1F1" height="50.9766" id="Simulation" rx="2.5" ry="2.5" style="stroke:#181818;stroke-width:0.5;" width="93" x="625.5" y="84"/><text fill="#000000" font-family="sans-serif" font-size="14" font-style="italic" lengthAdjust="spacing" textLength="73" x="635.5" y="102.5352">Simulation</text><line style="stroke:#181818;stroke-width:0.5;" x1="626.5" x2="717.5" y1="110.4883" y2="110.4883"/><ellipse cx="636.5" cy="124.2324" fill="none" rx="3" ry="3" style="stroke:#038048;stroke-width:1.0;"/><text fill="#000000" font-family="sans-serif" font-size="14" lengthAdjust="spacing" textLength="67" x="645.5" y="128.0234">step: Step</text></g><!--reverse link Tokens to Value--><g id="link_Tokens_Value"><path codeLine="19" d="M365,397.65 C365,415.49 365,423.46 365,441.27 " fill="none" id="Tokens-backto-Value" style="stroke:#181818;stroke-width:1.0;"/><ellipse cx="365" cy="389.65" fill="none" rx="8" ry="8" style="stroke:#181818;stroke-width:1.0;"/><line style="stroke:#181818;stroke-width:1.0;" x1="365" x2="365" y1="397.65" y2="381.65"/><line style="stroke:#181818;stroke-width:1.0;" x1="357" x2="373" y1="389.65" y2="389.65"/></g><!--link Marking to Tokens--><g id="link_Marking_Tokens"><path codeLine="24" d="M365,270.73 C365,289.95 365,306.91 365,324 " fill="none" id="Marking-to-Tokens" style="stroke:#181818;stroke-width:1.0;stroke-dasharray:7.0,7.0;"/><polygon fill="#181818" points="365,330,369,321,365,325,361,321,365,330" style="stroke:#181818;stroke-width:1.0;"/></g><!--link MarkingFormatter to Marking--><g id="link_MarkingFormatter_Marking"><path codeLine="29" d="M174.44,135.45 C208.19,152.5 248.1445,172.6847 286.1145,191.8647 " fill="none" id="MarkingFormatter-to-Marking" style="stroke:#181818;stroke-width:1.0;stroke-dasharray:7.0,7.0;"/><polygon fill="#181818" points="291.47,194.57,285.2402,186.9418,287.0071,192.3156,281.6332,194.0825,291.47,194.57" style="stroke:#181818;stroke-width:1.0;"/></g><!--link Simulation to Net--><g id="link_Simulation_Net"><path codeLine="37" d="M711.4994,143.0631 C734.1594,161.7431 752,176.46 752,176.46 C752,176.46 766.7701,197.9263 777.9801,214.2263 " fill="none" id="Simulation-Net" style="stroke:#181818;stroke-width:1.0;"/><polygon fill="none" points="702.24,135.43,704.3253,142.333,711.4994,143.0631,709.4141,136.1601,702.24,135.43" style="stroke:#181818;stroke-width:1.0;"/><polygon fill="#181818" points="781.38,219.17,779.5759,209.4878,778.5467,215.0502,772.9843,214.021,781.38,219.17" style="stroke:#181818;stroke-width:1.0;"/><text fill="#000000" font-family="sans-serif" font-size="13" lengthAdjust="spacing" textLength="8" x="699.98" y="155.3477">1</text><text fill="#000000" font-family="sans-serif" font-size="13" lengthAdjust="spacing" textLength="8" x="768.5686" y="208.7783">1</text></g><!--link Simulation to Marking--><g id="link_Simulation_Marking"><path codeLine="38" d="M613.8784,133.4367 C569.9584,150.7767 519.8108,170.5767 464.8708,192.2667 " fill="none" id="Simulation-Marking" style="stroke:#181818;stroke-width:1.0;"/><polygon fill="none" points="625.04,129.03,617.9903,127.5128,613.8784,133.4367,620.9281,134.9539,625.04,129.03" style="stroke:#181818;stroke-width:1.0;"/><polygon fill="#181818" points="459.29,194.47,469.1301,194.8856,463.9407,192.6339,466.1924,187.4445,459.29,194.47" style="stroke:#181818;stroke-width:1.0;"/><text fill="#000000" font-family="sans-serif" font-size="13" lengthAdjust="spacing" textLength="8" x="609.5553" y="128.3898">1</text><text fill="#000000" font-family="sans-serif" font-size="13" lengthAdjust="spacing" textLength="8" x="466.8086" y="184.2048">1</text></g><!--SRC=[XL9DRy8m3BtdLrYSGAW8hWZricdI3kF2jBjf3OkQBoNkf6hgVrzQ2YrTsNp8ntlFVewLK4ZZqAE68sR5sTlIv4zMMG_iqOH8aM4HRgh0bQAuUfbngTM0KT8GLux0MLKrbm5dR4w176pMQo4-PKv0sd45clIHV132HNCynznO0xu5nBX2FTA4D4p-X1d1dhX5wpjra7fI_MuBCc50DR7yGbNI5ZwQxSRK4-cjOfoTqmbBnO_pEzDbaemaVU4tz75Avt7fmEIsS8ZhFQulyla-3lGrNsmxYmdlQ-7LAXsB7hVnOhr6Zk2udrDBp3lPuh5VNw4nxi3Vpfd24DhtmMwN8sFpSz9qn3-N7bbQSw-PQFyWTQakqly7sVSyI9jjPc2J96qFrw_rbsRuj5hKFm00]--></g></svg>