<?xml version="1.0" encoding="us-ascii" standalone="no"?><svg xmlns="http://www.w3.org/2000/svg" xmlns:xlink="http://www.w3.org/1999/xlink" contentStyleType="text/css" height="258px" preserveAspectRatio="none" style="width:1021px;height:258px;background:#FFFFFF;" version="1.1" viewBox="0 0 1021 258" width="1021px" zoomAndPan="magnify"><defs/><g><!--cluster pnet_core--><g id="cluster_pnet_core"><path d="M160.5,6 L230.5,6 A3.75,3.75 0 0 1 233,8.5 L240,28.4883 L918.5,28.4883 A2.5,2.5 0 0 1 921,30.9883 L921,147.99 A2.5,2.5 0 0 1 918.5,150.49 L160.5,150.49 A2.5,2.5 0 0 1 158,147.99 L158,8.5 A2.5,2.5 0 0 1 160.5,6 " fill="none" style="stroke:#000000;stroke-width:1.5;"/><line style="stroke:#000000;stroke-width:1.5;" x1="158" x2="240" y1="28.4883" y2="28.4883"/><text fill="#000000" font-family="sans-serif" font-size="14" font-weight="bold" lengthAdjust="spacing" textLength="69" x="162" y="21.5352">pnet_core</text></g><!--cluster net--><g id="cluster_net"><path d="M184.5,49 L208.5,49 A3.75,3.75 0 0 1 211,51.5 L218,71.4883 L493.5,71.4883 A2.5,2.5 0 0 1 496,73.9883 L496,123.99 A2.5,2.5 0 0 1 493.5,126.49 L184.5,126.49 A2.5,2.5 0 0 1 182,123.99 L182,51.5 A2.5,2.5 0 0 1 184.5,49 " fill="none" style="stroke:#000000;stroke-width:1.5;"/><line style="stroke:#000000;stroke-width:1.5;" x1="182" x2="218" y1="71.4883" y2="71.4883"/><text fill="#000000" font-family="sans-serif" font-size="14" font-weight="bold" lengthAdjust="spacing" textLength="23" x="186" y="64.5352">net</text></g><!--cluster sim--><g id="cluster_sim"><path d="M522.5,49 L550.5,49 A3.75,3.75 0 0 1 553,51.5 L560,71.4883 L894.5,71.4883 A2.5,2.5 0 0 1 897,73.9883 L897,123.99 A2.5,2.5 0 0 1 894.5,126.49 L522.5,126.49 A2.5,2.5 0 0 1 520,123.99 L520,51.5 A2.5,2.5 0 0 1 522.5,49 " fill="none" style="stroke:#000000;stroke-width:1.5;"/><line style="stroke:#000000;stroke-width:1.5;" x1="520" x2="560" y1="71.4883" y2="71.4883"/><text fill="#000000" font-family="sans-serif" font-size="14" font-weight="bold" lengthAdjust="spacing" textLength="27" x="524" y="64.5352">sim</text></g><!--cluster elementary--><g id="cluster_elementary"><path d="M8.5,174.49 L89.5,174.49 A3.75,3.75 0 0 1 92,176.99 L99,196.9783 L928.5,196.9783 A2.5,2.5 0 0 1 931,199.4783 L931,249.48 A2.5,2.5 0 0 1 928.5,251.98 L8.5,251.98 A2.5,2.5 0 0 1 6,249.48 L6,176.99 A2.5,2.5 0 0 1 8.5,174.49 " fill="none" style="stroke:#000000;stroke-width:1.5;"/><line style="stroke:#000000;stroke-width:1.5;" x1="6" x2="99" y1="196.9783" y2="196.9783"/><text fill="#000000" font-family="sans-serif" font-size="14" font-weight="bold" lengthAdjust="spacing" textLength="80" x="10" y="190.0252">elementary</text></g><!--class Arc--><g id="elem_Arc"><rect codeLine="10" fill="#F1F1F1" height="26.4883" id="Arc" rx="2.5" ry="2.5" style="stroke:#181818;stroke-width:0.5;" width="29" x="198.5" y="84"/><text fill="#000000" font-family="sans-serif" font-size="14" font-style="italic" lengthAdjust="spacing" textLength="23" x="201.5" y="102.5352">Arc</text></g><!--class Place--><g id="elem_Place"><rect codeLine="11" fill="#F1F1F1" height="26.4883" id="Place" rx="2.5" ry="2.5" style="stroke:#181818;stroke-width:0.5;" width="41" x="262.5" y="84"/><text fill="#000000" font-family="sans-serif" font-size="14" font-style="italic" lengthAdjust="spacing" textLength="35" x="265.5" y="102.5352">Place</text></g><!--class Transition--><g id="elem_Transition"><rect codeLine="12" fill="#F1F1F1" height="26.4883" id="Transition" rx="2.5" ry="2.5" style="stroke:#181818;stroke-width:0.5;" width="76" x="339" y="84"/><text fill="#000000" font-family="sans-serif" font-size="14" font-style="italic" lengthAdjust="spacing" textLength="70" x="342" y="102.5352">Transition</text></g><!--class Net--><g id="elem_Net"><rect codeLine="13" fill="#F1F1F1" height="26.4883" id="Net" rx="2.5" ry="2.5" style="stroke:#181818;stroke-width:0.5;" width="29" x="450.5" y="84"/><text fill="#000000" font-family="sans-serif" font-size="14" font-style="italic" lengthAdjust="spacing" textLength="23" x="453.5" y="102.5352">Net</text></g><!--class Tokens--><g id="elem_Tokens"><rect codeLine="16" fill="#F1F1F1" height="26.4883" id="Tokens" rx="2.5" ry="2.5" style="stroke:#181818;stroke-width:0.5;" width="56" x="536" y="84"/><text fill="#000000" font-family="sans-serif" font-size="14" font-style="italic" lengthAdjust="spacing" textLength="50" x="539" y="102.5352">Tokens</text></g><!--class Value--><g id="elem_Value"><rect codeLine="17" fill="#F1F1F1" height="26.4883" id="Value" rx="2.5" ry="2.5" style="stroke:#181818;stroke-width:0.5;" width="44" x="837" y="84"/><text fill="#000000" font-family="sans-serif" font-size="14" font-style="italic" lengthAdjust="spacing" textLength="38" x="840" y="102.5352">Value</text></g><!--class Marking--><g id="elem_Marking"><rect codeLine="18" fill="#F1F1F1" height="26.4883" id="Marking" rx="2.5" ry="2.5" style="stroke:#181818;stroke-width:0.5;" width="62" x="627" y="84"/><text fill="#000000" font-family="sans-serif" font-size="14" font-style="italic" lengthAdjust="spacing" textLength="56" x="630" y="102.5352">Marking</text></g><!--class Simulation--><g id="elem_Simulation"><rect codeLine="19" fill="#F1F1F1" height="26.4883" id="Simulation" rx="2.5" ry="2.5" style="stroke:#181818;stroke-width:0.5;" width="79" x="723.5" y="84"/><text fill="#000000" font-family="sans-serif" font-size="14" font-style="italic" lengthAdjust="spacing" textLength="73" x="726.5" y="102.5352">Simulation</text></g><!--class SimpleArc--><g id="elem_SimpleArc"><rect codeLine="23" fill="#F1F1F1" height="26.4883" id="SimpleArc" rx="2.5" ry="2.5" style="stroke:#181818;stroke-width:0.5;" width="75" x="22.5" y="209.49"/><text fill="#000000" font-family="sans-serif" font-size="14" lengthAdjust="spacing" textLength="69" x="25.5" y="228.0252">SimpleArc</text></g><!--class SimplePlace--><g id="elem_SimplePlace"><rect codeLine="26" fill="#F1F1F1" height="26.4883" id="SimplePlace" rx="2.5" ry="2.5" style="stroke:#181818;stroke-width:0.5;" width="87" x="132.5" y="209.49"/><text fill="#000000" font-family="sans-serif" font-size="14" lengthAdjust="spacing" textLength="81" x="135.5" y="228.0252">SimplePlace</text></g><!--class SimpleTransition--><g id="elem_SimpleTransition"><rect codeLine="29" fill="#F1F1F1" height="26.4883" id="SimpleTransition" rx="2.5" ry="2.5" style="stroke:#181818;stroke-width:0.5;" width="122" x="254" y="209.49"/><text fill="#000000" font-family="sans-serif" font-size="14" lengthAdjust="spacing" textLength="116" x="257" y="228.0252">SimpleTransition</text></g><!--class ElementaryNet--><g id="elem_ElementaryNet"><rect codeLine="32" fill="#F1F1F1" height="26.4883" id="ElementaryNet" rx="2.5" ry="2.5" style="stroke:#181818;stroke-width:0.5;" width="105" x="410.5" y="209.49"/><text fill="#000000" font-family="sans-serif" font-size="14" lengthAdjust="spacing" textLength="99" x="413.5" y="228.0252">ElementaryNet</text></g><!--class Dot--><g id="elem_Dot"><rect codeLine="35" fill="#F1F1F1" height="26.4883" id="Dot" rx="2.5" ry="2.5" style="stroke:#181818;stroke-width:0.5;" width="30" x="551" y="209.49"/><text fill="#000000" font-family="sans-serif" font-size="14" lengthAdjust="spacing" textLength="24" x="554" y="228.0252">Dot</text></g><!--class SimpleMarking--><g id="elem_SimpleMarking"><rect codeLine="39" fill="#F1F1F1" height="26.4883" id="SimpleMarking" rx="2.5" ry="2.5" style="stroke:#181818;stroke-width:0.5;" width="108" x="616" y="209.49"/><text fill="#000000" font-family="sans-serif" font-size="14" lengthAdjust="spacing" textLength="102" x="619" y="228.0252">SimpleMarking</text></g><!--class ElementarySimulation--><g id="elem_ElementarySimulation"><rect codeLine="42" fill="#F1F1F1" height="26.4883" id="ElementarySimulation" rx="2.5" ry="2.5" style="stroke:#181818;stroke-width:0.5;" width="155" x="759.5" y="209.49"/><text fill="#000000" font-family="sans-serif" font-size="14" lengthAdjust="spacing" textLength="149" x="762.5" y="228.0252">ElementarySimulation</text></g><!--class bool--><g id="elem_bool"><rect codeLine="6" fill="#F1F1F1" height="40.6211" id="bool" rx="2.5" ry="2.5" style="stroke:#181818;stroke-width:0.5;" width="65" x="949.5" y="202.43"/><text fill="#000000" font-family="sans-serif" font-size="12" font-style="italic" lengthAdjust="spacing" textLength="63" x="950.5" y="219.0316">&#171;datatype&#187;</text><text fill="#000000" font-family="sans-serif" font-size="14" lengthAdjust="spacing" textLength="31" x="966.5" y="235.098">bool</text></g><!--reverse link Arc to SimpleArc--><g id="link_Arc_SimpleArc"><path codeLine="24" d="M182.8904,117.0147 C163.1604,129.4447 142.8,143.17 115,166.49 C98.82,180.06 81.94,197.61 71.22,209.24 " fill="none" id="Arc-backto-SimpleArc" style="stroke:#181818;stroke-width:1.0;stroke-dasharray:7.0,7.0;"/><polygon fill="none" points="198.12,107.42,179.6921,111.9382,186.0886,122.0913,198.12,107.42" style="stroke:#181818;stroke-width:1.0;"/></g><!--reverse link Place to SimplePlace--><g id="link_Place_SimplePlace"><path codeLine="27" d="M267.654,126.6711 C260.684,139.3411 257.68,143.31 245,158.49 C240.36,164.04 208.82,192.45 190.02,209.25 " fill="none" id="Place-backto-SimplePlace" style="stroke:#181818;stroke-width:1.0;stroke-dasharray:7.0,7.0;"/><polygon fill="none" points="276.33,110.9,262.397,123.7791,272.9111,129.5631,276.33,110.9" style="stroke:#181818;stroke-width:1.0;"/></g><!--reverse link Transition to SimpleTransition--><g id="link_Transition_SimpleTransition"><path codeLine="30" d="M362.7556,126.6274 C350.9356,150.1774 333.28,185.33 321.33,209.13 " fill="none" id="Transition-backto-SimpleTransition" style="stroke:#181818;stroke-width:1.0;stroke-dasharray:7.0,7.0;"/><polygon fill="none" points="370.83,110.54,357.3931,123.9359,368.118,129.3189,370.83,110.54" style="stroke:#181818;stroke-width:1.0;"/></g><!--reverse link Net to ElementaryNet--><g id="link_Net_ElementaryNet"><path codeLine="33" d="M464.5096,128.5377 C464.1296,152.0877 463.59,185.33 463.2,209.13 " fill="none" id="Net-backto-ElementaryNet" style="stroke:#181818;stroke-width:1.0;stroke-dasharray:7.0,7.0;"/><polygon fill="none" points="464.8,110.54,458.5104,128.4409,470.5088,128.6345,464.8,110.54" style="stroke:#181818;stroke-width:1.0;"/></g><!--reverse link Tokens to Dot--><g id="link_Tokens_Dot"><path codeLine="36" d="M564.4904,128.5377 C564.8704,152.0877 565.41,185.33 565.8,209.13 " fill="none" id="Tokens-backto-Dot" style="stroke:#181818;stroke-width:1.0;stroke-dasharray:7.0,7.0;"/><polygon fill="none" points="564.2,110.54,558.4912,128.6345,570.4896,128.4409,564.2,110.54" style="stroke:#181818;stroke-width:1.0;"/></g><!--reverse link Value to bool--><g id="link_Value_bool"><path codeLine="37" d="M886.0434,122.9898 C900.7334,136.4898 911.28,146.51 931,166.49 C942.37,178.01 954.69,191.33 964.37,202.01 " fill="none" id="Value-backto-bool" style="stroke:#181818;stroke-width:1.0;stroke-dasharray:7.0,7.0;"/><polygon fill="none" points="872.79,110.81,881.9835,127.4076,890.1033,118.572,872.79,110.81" style="stroke:#181818;stroke-width:1.0;"/></g><!--reverse link Marking to SimpleMarking--><g id="link_Marking_SimpleMarking"><path codeLine="40" d="M660.9321,128.4555 C663.2221,152.0055 666.46,185.33 668.77,209.13 " fill="none" id="Marking-backto-SimpleMarking" style="stroke:#181818;stroke-width:1.0;stroke-dasharray:7.0,7.0;"/><polygon fill="none" points="659.19,110.54,654.9603,129.0362,666.9039,127.8748,659.19,110.54" style="stroke:#181818;stroke-width:1.0;"/></g><!--reverse link Simulation to ElementarySimulation--><g id="link_Simulation_ElementarySimulation"><path codeLine="43" d="M779.6213,125.9807 C793.7313,149.5307 815.18,185.33 829.44,209.13 " fill="none" id="Simulation-backto-ElementarySimulation" style="stroke:#181818;stroke-width:1.0;stroke-dasharray:7.0,7.0;"/><polygon fill="none" points="770.37,110.54,774.4744,129.0644,784.7682,122.8969,770.37,110.54" style="stroke:#181818;stroke-width:1.0;"/></g><!--SRC=[RLBBRiCW4Bpp5Nn1bDwZI5NROwDAZNgjrdZh8lCIu8EL-jyB1jjOnWS4CypkC6lNSsN0WgGDiBwpUb3jYnRQKcz1kK2XyjIjjvmV1ORLSkO7AGf6S8L-D4YD5cCy59pIBJeqzEby9kINjqWPjqnWsgCqVgGIPOFM4S84E4SRhGMzN5hm4AjUhuIOu12wq20q-cRQ8dqG6hu53t16uiULH_i33EcpPHNqGuIrWj_ZkxddMbN86_ePdNQD7PVLndVTet8LuWl4KElz3ZParbMOJou70QkhYKnh72XGXY617RE9561G687XxVIHt6x0QJ2dl-kSoq4mnxAN92YBKcm7sPRQNblWkK2HRr7bRNt4BKunbTY3MHz7K0XVzNezRfScM_BpZvJXbFl1V8vzxtm1itGvpZUgnhSH7VqNNAvN37Jw1m00]--></g></svg>