<?xml version="1.0" encoding="us-ascii" standalone="no"?><svg xmlns="http://www.w3.org/2000/svg" xmlns:xlink="http://www.w3.org/1999/xlink" contentStyleType="text/css" height="448px" preserveAspectRatio="none" style="width:769px;height:448px;" version="1.1" viewBox="0 0 769 448" width="769px" zoomAndPan="magnify"><defs/><g><!--cluster pnet--><g id="cluster_pnet"><polygon fill="none" points="16,6,54,6,61,28.4883,752,28.4883,752,441.06,16,441.06,16,6" style="stroke:#000000;stroke-width:1.5;"/><line style="stroke:#000000;stroke-width:1.5;" x1="16" x2="61" y1="28.4883" y2="28.4883"/><text fill="#000000" font-family="sans-serif" font-size="14" font-weight="bold" lengthAdjust="spacing" textLength="32" x="20" y="21.5352">pnet</text></g><!--cluster net--><g id="cluster_net"><polygon fill="none" points="40,49,69,49,76,71.4883,728,71.4883,728,354.57,40,354.57,40,49" style="stroke:#000000;stroke-width:1.5;"/><line style="stroke:#000000;stroke-width:1.5;" x1="40" x2="76" y1="71.4883" y2="71.4883"/><text fill="#000000" font-family="sans-serif" font-size="14" font-weight="bold" lengthAdjust="spacing" textLength="23" x="44" y="64.5352">net</text></g><!--class HasIdentity--><g id="elem_HasIdentity"><rect codeLine="9" fill="#F1F1F1" height="26.4883" id="HasIdentity" rx="2.5" ry="2.5" style="stroke:#181818;stroke-width:0.5;" width="82" x="34" y="398.57"/><text fill="#000000" font-family="sans-serif" font-size="14" font-style="italic" lengthAdjust="spacing" textLength="76" x="37" y="417.1052">HasIdentity</text></g><!--class HasLabel--><g id="elem_HasLabel"><rect codeLine="10" fill="#F1F1F1" height="26.4883" id="HasLabel" rx="2.5" ry="2.5" style="stroke:#181818;stroke-width:0.5;" width="67" x="216.5" y="398.57"/><text fill="#000000" font-family="sans-serif" font-size="14" font-style="italic" lengthAdjust="spacing" textLength="61" x="219.5" y="417.1052">HasLabel</text></g><!--class Node--><g id="elem_Node"><rect codeLine="12" fill="#F1F1F1" height="26.4883" id="Node" rx="2.5" ry="2.5" style="stroke:#181818;stroke-width:0.5;" width="42" x="135" y="312.08"/><text fill="#000000" font-family="sans-serif" font-size="14" font-style="italic" lengthAdjust="spacing" textLength="36" x="138" y="330.6152">Node</text></g><!--class Place--><g id="elem_Place"><rect codeLine="16" fill="#F1F1F1" height="26.4883" id="Place" rx="2.5" ry="2.5" style="stroke:#181818;stroke-width:0.5;" width="41" x="55.5" y="205.11"/><text fill="#000000" font-family="sans-serif" font-size="14" font-style="italic" lengthAdjust="spacing" textLength="35" x="58.5" y="223.6452">Place</text></g><!--class Transition--><g id="elem_Transition"><rect codeLine="19" fill="#F1F1F1" height="26.4883" id="Transition" rx="2.5" ry="2.5" style="stroke:#181818;stroke-width:0.5;" width="76" x="197" y="205.11"/><text fill="#000000" font-family="sans-serif" font-size="14" font-style="italic" lengthAdjust="spacing" textLength="70" x="200" y="223.6452">Transition</text></g><!--class Arc--><g id="elem_Arc"><rect codeLine="22" fill="#F1F1F1" height="67.4648" id="Arc" rx="2.5" ry="2.5" style="stroke:#181818;stroke-width:0.5;" width="115" x="373.5" y="184.62"/><text fill="#000000" font-family="sans-serif" font-size="14" font-style="italic" lengthAdjust="spacing" textLength="23" x="419.5" y="203.1552">Arc</text><line style="stroke:#181818;stroke-width:0.5;" x1="374.5" x2="487.5" y1="211.1083" y2="211.1083"/><text fill="#000000" font-family="sans-serif" font-size="14" lengthAdjust="spacing" textLength="103" x="379.5" y="228.6434">source: NodeId</text><text fill="#000000" font-family="sans-serif" font-size="14" lengthAdjust="spacing" textLength="98" x="379.5" y="245.1317">target: NodeId</text></g><!--class Net--><g id="elem_Net"><rect codeLine="27" fill="#F1F1F1" height="26.4883" id="Net" rx="2.5" ry="2.5" style="stroke:#181818;stroke-width:0.5;" width="29" x="220.5" y="91.06"/><text fill="#000000" font-family="sans-serif" font-size="14" font-style="italic" lengthAdjust="spacing" textLength="23" x="223.5" y="109.5952">Net</text></g><!--class NetBuilder--><g id="elem_NetBuilder"><rect codeLine="32" fill="#F1F1F1" height="40.6211" id="NetBuilder" rx="2.5" ry="2.5" style="stroke:#181818;stroke-width:0.5;" width="77" x="446.5" y="84"/><text fill="#000000" font-family="sans-serif" font-size="12" font-style="italic" lengthAdjust="spacing" textLength="53" x="458.5" y="100.6016">&#171;builder&#187;</text><text fill="#000000" font-family="sans-serif" font-size="14" font-style="italic" lengthAdjust="spacing" textLength="71" x="449.5" y="116.668">NetBuilder</text></g><!--class PlaceBuilder--><g id="elem_PlaceBuilder"><rect codeLine="33" fill="#F1F1F1" height="40.6211" id="PlaceBuilder" rx="2.5" ry="2.5" style="stroke:#181818;stroke-width:0.5;" width="89" x="623.5" y="84"/><text fill="#000000" font-family="sans-serif" font-size="12" font-style="italic" lengthAdjust="spacing" textLength="53" x="641.5" y="100.6016">&#171;builder&#187;</text><text fill="#000000" font-family="sans-serif" font-size="14" font-style="italic" lengthAdjust="spacing" textLength="83" x="626.5" y="116.668">PlaceBuilder</text></g><!--class TransitionBuilder--><g id="elem_TransitionBuilder"><rect codeLine="34" fill="#F1F1F1" height="40.6211" id="TransitionBuilder" rx="2.5" ry="2.5" style="stroke:#181818;stroke-width:0.5;" width="124" x="588" y="198.04"/><text fill="#000000" font-family="sans-serif" font-size="12" font-style="italic" lengthAdjust="spacing" textLength="53" x="623.5" y="214.6416">&#171;builder&#187;</text><text fill="#000000" font-family="sans-serif" font-size="14" font-style="italic" lengthAdjust="spacing" textLength="118" x="591" y="230.708">TransitionBuilder</text></g><!--link Node to HasIdentity--><g id="link_Node_HasIdentity"><path codeLine="13" d="M144.05,338.79 C128.73,354.77 114.7971,369.3069 99.4571,385.3069 " fill="none" id="Node-to-HasIdentity" style="stroke:#181818;stroke-width:1.0;"/><polygon fill="none" points="87,398.3,103.7881,389.4593,95.1261,381.1545,87,398.3" style="stroke:#181818;stroke-width:1.0;"/></g><!--link Node to HasLabel--><g id="link_Node_HasLabel"><path codeLine="14" d="M169.87,338.79 C187.64,354.77 204.8832,370.2669 222.6832,386.2669 " fill="none" id="Node-to-HasLabel" style="stroke:#181818;stroke-width:1.0;"/><polygon fill="none" points="236.07,398.3,226.6942,381.8047,218.6722,390.7292,236.07,398.3" style="stroke:#181818;stroke-width:1.0;"/></g><!--link Place to Node--><g id="link_Place_Node"><path codeLine="17" d="M85.49,231.81 C100.89,252.01 120.218,277.3847 135.608,297.5747 " fill="none" id="Place-to-Node" style="stroke:#181818;stroke-width:1.0;"/><polygon fill="none" points="146.52,311.89,140.3798,293.9373,130.8362,301.212,146.52,311.89" style="stroke:#181818;stroke-width:1.0;"/></g><!--link Transition to Node--><g id="link_Transition_Node"><path codeLine="20" d="M225.63,231.81 C210.42,252.01 191.3862,277.3197 176.1862,297.5097 " fill="none" id="Transition-to-Node" style="stroke:#181818;stroke-width:1.0;"/><polygon fill="none" points="165.36,311.89,180.9796,301.1184,171.3928,293.901,165.36,311.89" style="stroke:#181818;stroke-width:1.0;"/></g><!--link Net to Place--><g id="link_Net_Place"><path codeLine="28" d="M210.2314,122.7631 C180.8614,143.4631 130.454,178.973 98.834,201.263 " fill="none" id="Net-Place" style="stroke:#181818;stroke-width:1.0;"/><polygon fill="#181818" points="220.04,115.85,212.8313,116.037,210.2314,122.7631,217.4401,122.5761,220.04,115.85" style="stroke:#181818;stroke-width:1.0;"/><polygon fill="#181818" points="93.93,204.72,103.5907,202.8038,98.0167,201.8392,98.9813,196.2652,93.93,204.72" style="stroke:#181818;stroke-width:1.0;"/><text fill="#000000" font-family="sans-serif" font-size="13" lengthAdjust="spacing" textLength="8" x="204.5745" y="115.0726">1</text><text fill="#000000" font-family="sans-serif" font-size="13" lengthAdjust="spacing" textLength="6" x="93.6221" y="194.2902">*</text></g><!--link Net to Transition--><g id="link_Net_Transition"><path codeLine="29" d="M235,129.73 C235,151.26 235,177.3 235,198.88 " fill="none" id="Net-Transition" style="stroke:#181818;stroke-width:1.0;"/><polygon fill="#181818" points="235,117.73,231,123.73,235,129.73,239,123.73,235,117.73" style="stroke:#181818;stroke-width:1.0;"/><polygon fill="#181818" points="235,204.88,239,195.88,235,199.88,231,195.88,235,204.88" style="stroke:#181818;stroke-width:1.0;"/><text fill="#000000" font-family="sans-serif" font-size="13" lengthAdjust="spacing" textLength="8" x="225.525" y="138.072">1</text><text fill="#000000" font-family="sans-serif" font-size="13" lengthAdjust="spacing" textLength="6" x="227.8188" y="194.2509">*</text></g><!--link Net to Arc--><g id="link_Net_Arc"><path codeLine="30" d="M260.1482,119.685 C286.0582,134.495 325.4409,157.0125 368.1109,181.4025 " fill="none" id="Net-Arc" style="stroke:#181818;stroke-width:1.0;"/><polygon fill="#181818" points="249.73,113.73,252.9541,120.1802,260.1482,119.685,256.9241,113.2348,249.73,113.73" style="stroke:#181818;stroke-width:1.0;"/><polygon fill="#181818" points="373.32,184.38,367.4914,176.441,368.9791,181.8988,363.5214,183.3865,373.32,184.38" style="stroke:#181818;stroke-width:1.0;"/><text fill="#000000" font-family="sans-serif" font-size="13" lengthAdjust="spacing" textLength="8" x="257.4561" y="112.1568">1</text><text fill="#000000" font-family="sans-serif" font-size="13" lengthAdjust="spacing" textLength="6" x="359.5454" y="176.6546">*</text></g><!--SRC=[ZL3DQiCm3BxxAKIEXK1x7IMmxRB2A3lq1PnOoqmTszWA8xHvzza9IroIiFaWB7q_-l5NgIrtl86ILzVQcLQBLwEC0t9S-m2X9kOdbgTEOOXELjGsAa6Kr4YTHR16TJ59C6q4UhHmsEyP-v820HjB7JJObEWyOpOqvtNG1W-uCGXFQaBtoIk4D-vF8emXgLiYxxn4DPH_FMQBH_8v306tVaA6F1VcM-VtOj5abJ4sM_7-K34cvcDXqaQdDTqb7bcID3eL9zK_7PvTbMmRdpUjg_1fK9p40qJSrKWBg5ypFiSp9jSAQNR8O9Vd1MIxRDnm6vvtsEQ4sJSwlxHI2NHmF9RZhoYshlu_wZpE5hzd_Gy0]--></g></svg>