<?xml version="1.0" encoding="us-ascii" standalone="no"?><svg xmlns="http://www.w3.org/2000/svg" xmlns:xlink="http://www.w3.org/1999/xlink" contentStyleType="text/css" height="376px" preserveAspectRatio="none" style="width:993px;height:376px;" version="1.1" viewBox="0 0 993 376" width="993px" zoomAndPan="magnify"><defs/><g><!--cluster pnet--><g id="cluster_pnet"><polygon fill="none" points="16,6,54,6,61,28.4883,976,28.4883,976,369.93,16,369.93,16,6" style="stroke:#000000;stroke-width:1.5;"/><line style="stroke:#000000;stroke-width:1.5;" x1="16" x2="61" y1="28.4883" y2="28.4883"/><text fill="#000000" font-family="sans-serif" font-size="14" font-weight="bold" lengthAdjust="spacing" textLength="32" x="20" y="21.5352">pnet</text></g><path d="M519,300.95 L543,300.95 A3.75,3.75 0 0 1 545.5,303.45 L552.5,323.4383 L557,323.4383 A2.5,2.5 0 0 1 559.5,325.9383 L559.5,351.4266 A2.5,2.5 0 0 1 557,353.9266 L519,353.9266 A2.5,2.5 0 0 1 516.5,351.4266 L516.5,303.45 A2.5,2.5 0 0 1 519,300.95 " fill="#F1F1F1" style="stroke:#181818;stroke-width:0.5;"/><line style="stroke:#181818;stroke-width:0.5;" x1="516.5" x2="552.5" y1="323.4383" y2="323.4383"/><text fill="#000000" font-family="sans-serif" font-size="14" font-weight="bold" lengthAdjust="spacing" textLength="23" x="520.5" y="316.4852">net</text><path d="M293,170.98 L321,170.98 A3.75,3.75 0 0 1 323.5,173.48 L330.5,193.4683 L335,193.4683 A2.5,2.5 0 0 1 337.5,195.9683 L337.5,221.4566 A2.5,2.5 0 0 1 335,223.9566 L293,223.9566 A2.5,2.5 0 0 1 290.5,221.4566 L290.5,173.48 A2.5,2.5 0 0 1 293,170.98 " fill="#F1F1F1" style="stroke:#181818;stroke-width:0.5;"/><line style="stroke:#181818;stroke-width:0.5;" x1="290.5" x2="330.5" y1="193.4683" y2="193.4683"/><text fill="#000000" font-family="sans-serif" font-size="14" font-weight="bold" lengthAdjust="spacing" textLength="27" x="294.5" y="186.5152">sim</text><path d="M884.5,170.98 L943.5,170.98 A3.75,3.75 0 0 1 946,173.48 L953,193.4683 L957.5,193.4683 A2.5,2.5 0 0 1 960,195.9683 L960,221.4566 A2.5,2.5 0 0 1 957.5,223.9566 L884.5,223.9566 A2.5,2.5 0 0 1 882,221.4566 L882,173.48 A2.5,2.5 0 0 1 884.5,170.98 " fill="#F1F1F1" style="stroke:#181818;stroke-width:0.5;"/><line style="stroke:#181818;stroke-width:0.5;" x1="882" x2="953" y1="193.4683" y2="193.4683"/><text fill="#000000" font-family="sans-serif" font-size="14" font-weight="bold" lengthAdjust="spacing" textLength="58" x="886" y="186.5152">guarded</text><path d="M699,170.98 L765,170.98 A3.75,3.75 0 0 1 767.5,173.48 L774.5,193.4683 L779,193.4683 A2.5,2.5 0 0 1 781.5,195.9683 L781.5,221.4566 A2.5,2.5 0 0 1 779,223.9566 L699,223.9566 A2.5,2.5 0 0 1 696.5,221.4566 L696.5,173.48 A2.5,2.5 0 0 1 699,170.98 " fill="#F1F1F1" style="stroke:#181818;stroke-width:0.5;"/><line style="stroke:#181818;stroke-width:0.5;" x1="696.5" x2="774.5" y1="193.4683" y2="193.4683"/><text fill="#000000" font-family="sans-serif" font-size="14" font-weight="bold" lengthAdjust="spacing" textLength="65" x="700.5" y="186.5152">inhibited</text><path d="M467.5,41 L510.5,41 A3.75,3.75 0 0 1 513,43.5 L520,63.4883 L524.5,63.4883 A2.5,2.5 0 0 1 527,65.9883 L527,91.4766 A2.5,2.5 0 0 1 524.5,93.9766 L467.5,93.9766 A2.5,2.5 0 0 1 465,91.4766 L465,43.5 A2.5,2.5 0 0 1 467.5,41 " fill="#F1F1F1" style="stroke:#181818;stroke-width:0.5;"/><line style="stroke:#181818;stroke-width:0.5;" x1="465" x2="520" y1="63.4883" y2="63.4883"/><text fill="#000000" font-family="sans-serif" font-size="14" font-weight="bold" lengthAdjust="spacing" textLength="42" x="469" y="56.5352">timed</text><path d="M162.5,41 L229.5,41 A3.75,3.75 0 0 1 232,43.5 L239,63.4883 L243.5,63.4883 A2.5,2.5 0 0 1 246,65.9883 L246,91.4766 A2.5,2.5 0 0 1 243.5,93.9766 L162.5,93.9766 A2.5,2.5 0 0 1 160,91.4766 L160,43.5 A2.5,2.5 0 0 1 162.5,41 " fill="#F1F1F1" style="stroke:#181818;stroke-width:0.5;"/><line style="stroke:#181818;stroke-width:0.5;" x1="160" x2="239" y1="63.4883" y2="63.4883"/><text fill="#000000" font-family="sans-serif" font-size="14" font-weight="bold" lengthAdjust="spacing" textLength="66" x="164" y="56.5352">weighted</text><!--link sim to net--><g id="link_sim_net"><path codeLine="12" d="M337.97,212.16 C381.76,237.18 468.8503,286.9336 510.9803,311.0036 " fill="none" id="sim-to-net" style="stroke:#181818;stroke-width:1.0;stroke-dasharray:7.0,7.0;"/><polygon fill="#181818" points="516.19,313.98,510.3598,306.0422,511.8486,311.4996,506.3912,312.9885,516.19,313.98" style="stroke:#181818;stroke-width:1.0;"/><text fill="#000000" font-family="sans-serif" font-size="13" lengthAdjust="spacing" textLength="56" x="440" y="267.5184">&#171;import&#187;</text></g><!--link guarded to net--><g id="link_guarded_net"><path codeLine="15" d="M881.59,213.66 C826.46,234.92 733,270.95 733,270.95 C733,270.95 616.761,304.0281 565.761,318.5381 " fill="none" id="guarded-to-net" style="stroke:#181818;stroke-width:1.0;stroke-dasharray:7.0,7.0;"/><polygon fill="#181818" points="559.99,320.18,569.7411,321.5645,564.7991,318.8118,567.5519,313.8698,559.99,320.18" style="stroke:#181818;stroke-width:1.0;"/><text fill="#000000" font-family="sans-serif" font-size="13" lengthAdjust="spacing" textLength="56" x="774" y="267.5184">&#171;import&#187;</text></g><!--link inhibited to net--><g id="link_inhibited_net"><path codeLine="18" d="M698.32,224.36 C656.57,250.95 598.2112,288.1075 565.0412,309.2275 " fill="none" id="inhibited-to-net" style="stroke:#181818;stroke-width:1.0;stroke-dasharray:7.0,7.0;"/><polygon fill="#181818" points="559.98,312.45,569.7201,310.9903,564.1976,309.7646,565.4234,304.2421,559.98,312.45" style="stroke:#181818;stroke-width:1.0;"/><text fill="#000000" font-family="sans-serif" font-size="13" lengthAdjust="spacing" textLength="56" x="651" y="267.5184">&#171;import&#187;</text></g><!--link timed to net--><g id="link_timed_net"><path codeLine="21" d="M500.18,94.17 C508.21,143.48 524.7465,245.0279 532.8065,294.5679 " fill="none" id="timed-to-net" style="stroke:#181818;stroke-width:1.0;stroke-dasharray:7.0,7.0;"/><polygon fill="#181818" points="533.77,300.49,536.2728,290.9645,532.9671,295.5549,528.3766,292.2491,533.77,300.49" style="stroke:#181818;stroke-width:1.0;"/><text fill="#000000" font-family="sans-serif" font-size="13" lengthAdjust="spacing" textLength="56" x="522" y="202.5384">&#171;import&#187;</text></g><!--link timed to sim--><g id="link_timed_sim"><path codeLine="22" d="M464.71,90.49 C428.73,115.79 375.3674,153.3079 342.8274,176.1979 " fill="none" id="timed-to-sim" style="stroke:#181818;stroke-width:1.0;stroke-dasharray:7.0,7.0;"/><polygon fill="#181818" points="337.92,179.65,347.5826,177.7435,342.0095,176.7732,342.9798,171.2002,337.92,179.65" style="stroke:#181818;stroke-width:1.0;"/><text fill="#000000" font-family="sans-serif" font-size="13" lengthAdjust="spacing" textLength="56" x="416" y="137.5484">&#171;import&#187;</text></g><!--link weighted to net--><g id="link_weighted_net"><path codeLine="25" d="M197.7,94.35 C191.48,124.71 182,170.98 182,170.98 C182,170.98 182,223.95 182,223.95 C182,223.95 433.2041,296.2703 510.5041,318.5203 " fill="none" id="weighted-to-net" style="stroke:#181818;stroke-width:1.0;stroke-dasharray:7.0,7.0;"/><polygon fill="#181818" points="516.27,320.18,508.7276,313.8466,511.4651,318.797,506.5147,321.5345,516.27,320.18" style="stroke:#181818;stroke-width:1.0;"/><text fill="#000000" font-family="sans-serif" font-size="13" lengthAdjust="spacing" textLength="56" x="183" y="202.5384">&#171;import&#187;</text></g><!--link weighted to sim--><g id="link_weighted_sim"><path codeLine="26" d="M225.46,94.39 C244.72,116.59 268.3893,143.8769 287.6393,166.0769 " fill="none" id="weighted-to-sim" style="stroke:#181818;stroke-width:1.0;stroke-dasharray:7.0,7.0;"/><polygon fill="#181818" points="291.57,170.61,288.696,161.1898,288.2944,166.8324,282.6518,166.4308,291.57,170.61" style="stroke:#181818;stroke-width:1.0;"/><text fill="#000000" font-family="sans-serif" font-size="13" lengthAdjust="spacing" textLength="56" x="266" y="137.5484">&#171;import&#187;</text></g><!--SRC=[XKzB2eCm4Dtd57E2OhT5tFGaqGmwc1-JaIAbTsz4_D6AMOHvNsPIJpvgrWvgtVGjXy6RPx21GLZxb2NqejBgIZ9Qp3zJ8uEpEyMIHnaZGWnsdC1Eyy5WmWZteb2g8uFG43SMvnbTb14SkXevAHNp8hhDFRaFuAqWluMRgFVdG2Lo2pMDjrirkHvGbkHYOAagTV2tWsQ3Piaiy397lgEQP4jkn6LMo6sv6VpB7DLypNdZ2wdjTiki-AptOFYf_dm1]--></g></svg>