<?xml version="1.0" encoding="UTF-8" standalone="no"?>
<!DOCTYPE svg PUBLIC "-//W3C//DTD SVG 1.1//EN"
 "http://www.w3.org/Graphics/SVG/1.1/DTD/svg11.dtd">
<!-- Generated by graphviz version 9.0.0 (20230911.1827)
 -->
<!-- Pages: 1 -->
<svg width="282pt" height="61pt"
 viewBox="0.00 0.00 282.20 60.50" xmlns="http://www.w3.org/2000/svg" xmlns:xlink="http://www.w3.org/1999/xlink">
<g id="graph0" class="graph" transform="scale(1 1) rotate(0) translate(4 56.5)">
<!-- p1 -->
<g id="node1" class="node">
<title>p1</title>
<ellipse fill="none" stroke="darkgrey" cx="31.5" cy="-34.5" rx="18" ry="18"/>
<text text-anchor="middle" x="6.75" y="-3.2" font-family="Times,serif" font-size="14.00">p1</text>
</g>
<!-- t1 -->
<g id="node3" class="node">
<title>t1</title>
<polygon fill="lightgreen" stroke="darkgreen" points="157.95,-52.5 150.75,-52.5 150.75,-16.5 157.95,-16.5 157.95,-52.5"/>
<text text-anchor="middle" x="145.5" y="-3.2" font-family="Times,serif" font-size="14.00">t1</text>
</g>
<!-- p1&#45;&gt;t1 -->
<g id="edge1" class="edge">
<title>p1&#45;&gt;t1</title>
<path fill="none" stroke="black" d="M49.81,-34.5C74.71,-34.5 119.99,-34.5 141.45,-34.5"/>
<ellipse fill="none" stroke="black" cx="145.77" cy="-34.5" rx="4" ry="4"/>
<text text-anchor="start" x="76.5" y="-38.7" font-family="Times,serif" font-style="italic" font-size="14.00">inhibitor</text>
</g>
<!-- p2 -->
<g id="node2" class="node">
<title>p2</title>
<ellipse fill="none" stroke="black" cx="256.2" cy="-34.5" rx="18" ry="18"/>
<text text-anchor="middle" x="256.2" y="-29.45" font-family="Times,serif" font-size="14.00">â—</text>
<text text-anchor="middle" x="231.45" y="-3.2" font-family="Times,serif" font-size="14.00">p2</text>
</g>
<!-- t1&#45;&gt;p2 -->
<g id="edge2" class="edge">
<title>t1&#45;&gt;p2</title>
<path fill="none" stroke="black" d="M158.23,-34.5C167.54,-34.5 197.65,-34.5 221.87,-34.5"/>
<polygon fill="black" stroke="black" points="229.97,-36.81 236.57,-34.5 229.97,-32.19 229.97,-36.81"/>
<polygon fill="black" stroke="black" points="221.36,-36.81 227.96,-34.5 221.36,-32.19 221.36,-36.81"/>
<text text-anchor="start" x="184.95" y="-38.7" font-family="Times,serif" font-style="italic" font-size="14.00">reset</text>
</g>
</g>
</svg>
