<?xml version="1.0" encoding="us-ascii" standalone="no"?><svg xmlns="http://www.w3.org/2000/svg" xmlns:xlink="http://www.w3.org/1999/xlink" contentStyleType="text/css" height="410px" preserveAspectRatio="none" style="width:822px;height:410px;" version="1.1" viewBox="0 0 822 410" width="822px" zoomAndPan="magnify"><defs/><g><!--cluster pnet--><g id="cluster_pnet"><polygon fill="none" points="16,6,54,6,61,28.4883,805,28.4883,805,403.93,16,403.93,16,6" style="stroke:#000000;stroke-width:1.5;"/><line style="stroke:#000000;stroke-width:1.5;" x1="16" x2="61" y1="28.4883" y2="28.4883"/><text fill="#000000" font-family="sans-serif" font-size="14" font-weight="bold" lengthAdjust="spacing" textLength="32" x="20" y="21.5352">pnet</text></g><!--cluster net--><g id="cluster_net"><polygon fill="none" points="337,49,366,49,373,71.4883,445,71.4883,445,126.49,337,126.49,337,49" style="stroke:#000000;stroke-width:1.5;"/><line style="stroke:#000000;stroke-width:1.5;" x1="337" x2="373" y1="71.4883" y2="71.4883"/><text fill="#000000" font-family="sans-serif" font-size="14" font-weight="bold" lengthAdjust="spacing" textLength="23" x="341" y="64.5352">net</text></g><!--cluster sim--><g id="cluster_sim"><polygon fill="none" points="106,49,139,49,146,71.4883,204,71.4883,204,126.49,106,126.49,106,49" style="stroke:#000000;stroke-width:1.5;"/><line style="stroke:#000000;stroke-width:1.5;" x1="106" x2="146" y1="71.4883" y2="71.4883"/><text fill="#000000" font-family="sans-serif" font-size="14" font-weight="bold" lengthAdjust="spacing" textLength="27" x="110" y="64.5352">sim</text></g><!--cluster timed--><g id="cluster_timed"><polygon fill="none" points="40,150.49,88,150.49,95,172.9783,781,172.9783,781,379.93,40,379.93,40,150.49" style="stroke:#000000;stroke-width:1.5;"/><line style="stroke:#000000;stroke-width:1.5;" x1="40" x2="95" y1="172.9783" y2="172.9783"/><text fill="#000000" font-family="sans-serif" font-size="14" font-weight="bold" lengthAdjust="spacing" textLength="42" x="44" y="166.0252">timed</text></g><!--class Transition--><g id="elem_Transition"><rect codeLine="10" fill="#F1F1F1" height="26.4883" id="Transition" rx="2.5" ry="2.5" style="stroke:#181818;stroke-width:0.5;" width="76" x="353" y="84"/><text fill="#000000" font-family="sans-serif" font-size="14" font-style="italic" lengthAdjust="spacing" textLength="70" x="356" y="102.5352">Transition</text></g><!--class Duration--><g id="elem_Duration"><rect codeLine="13" fill="#F1F1F1" height="26.4883" id="Duration" rx="2.5" ry="2.5" style="stroke:#181818;stroke-width:0.5;" width="66" x="122" y="84"/><text fill="#000000" font-family="sans-serif" font-size="14" font-style="italic" lengthAdjust="spacing" textLength="60" x="125" y="102.5352">Duration</text></g><!--class TimedTransition--><g id="elem_TimedTransition"><rect codeLine="16" fill="#F1F1F1" height="50.9766" id="TimedTransition" rx="2.5" ry="2.5" style="stroke:#181818;stroke-width:0.5;" width="163" x="309.5" y="185.49"/><text fill="#000000" font-family="sans-serif" font-size="14" font-style="italic" lengthAdjust="spacing" textLength="113" x="334.5" y="204.0252">TimedTransition</text><line style="stroke:#181818;stroke-width:0.5;" x1="310.5" x2="471.5" y1="211.9783" y2="211.9783"/><ellipse cx="320.5" cy="225.7224" fill="#84BE84" rx="3" ry="3" style="stroke:#038048;stroke-width:1.0;"/><text fill="#000000" font-family="sans-serif" font-size="14" lengthAdjust="spacing" textLength="137" x="329.5" y="229.5134">duration(): Duration</text></g><!--class ImmediateTransition--><g id="elem_ImmediateTransition"><rect codeLine="21" fill="#F1F1F1" height="26.4883" id="ImmediateTransition" rx="2.5" ry="2.5" style="stroke:#181818;stroke-width:0.5;" width="148" x="56" y="316.95"/><text fill="#000000" font-family="sans-serif" font-size="14" font-style="italic" lengthAdjust="spacing" textLength="142" x="59" y="335.4852">ImmediateTransition</text></g><!--class FixedDurationTransition--><g id="elem_FixedDurationTransition"><rect codeLine="24" fill="#F1F1F1" height="50.9766" id="FixedDurationTransition" rx="2.5" ry="2.5" style="stroke:#181818;stroke-width:0.5;" width="174" x="304" y="304.71"/><text fill="#000000" font-family="sans-serif" font-size="14" font-style="italic" lengthAdjust="spacing" textLength="168" x="307" y="323.2452">FixedDurationTransition</text><line style="stroke:#181818;stroke-width:0.5;" x1="305" x2="477" y1="331.1983" y2="331.1983"/><ellipse cx="315" cy="344.9424" fill="none" rx="3" ry="3" style="stroke:#038048;stroke-width:1.0;"/><text fill="#000000" font-family="sans-serif" font-size="14" lengthAdjust="spacing" textLength="103" x="324" y="348.7334">fixed: Duration</text></g><!--class IntervalDurationTransition--><g id="elem_IntervalDurationTransition"><rect codeLine="29" fill="#F1F1F1" height="67.4648" id="IntervalDurationTransition" rx="2.5" ry="2.5" style="stroke:#181818;stroke-width:0.5;" width="187" x="578.5" y="296.47"/><text fill="#000000" font-family="sans-serif" font-size="14" font-style="italic" lengthAdjust="spacing" textLength="181" x="581.5" y="315.0052">IntervalDurationTransition</text><line style="stroke:#181818;stroke-width:0.5;" x1="579.5" x2="764.5" y1="322.9583" y2="322.9583"/><ellipse cx="589.5" cy="336.7024" fill="none" rx="3" ry="3" style="stroke:#038048;stroke-width:1.0;"/><text fill="#000000" font-family="sans-serif" font-size="14" lengthAdjust="spacing" textLength="106" x="598.5" y="340.4934">lower: Duration</text><ellipse cx="589.5" cy="353.1907" fill="none" rx="3" ry="3" style="stroke:#038048;stroke-width:1.0;"/><text fill="#000000" font-family="sans-serif" font-size="14" lengthAdjust="spacing" textLength="109" x="598.5" y="356.9817">upper: Duration</text></g><!--reverse link Transition to TimedTransition--><g id="link_Transition_TimedTransition"><path codeLine="19" d="M391,128.63 C391,146.58 391,162.22 391,185.34 " fill="none" id="Transition-backto-TimedTransition" style="stroke:#181818;stroke-width:1.0;"/><polygon fill="none" points="391,110.63,385,128.63,397,128.63,391,110.63" style="stroke:#181818;stroke-width:1.0;"/></g><!--reverse link TimedTransition to ImmediateTransition--><g id="link_TimedTransition_ImmediateTransition"><path codeLine="22" d="M319.2293,244.213 C264.9093,268.603 200.66,297.46 158.31,316.48 " fill="none" id="TimedTransition-backto-ImmediateTransition" style="stroke:#181818;stroke-width:1.0;"/><polygon fill="none" points="335.65,236.84,316.7716,238.7394,321.687,249.6866,335.65,236.84" style="stroke:#181818;stroke-width:1.0;"/></g><!--reverse link TimedTransition to FixedDurationTransition--><g id="link_TimedTransition_FixedDurationTransition"><path codeLine="27" d="M391,254.84 C391,274.73 391,284.49 391,304.37 " fill="none" id="TimedTransition-backto-FixedDurationTransition" style="stroke:#181818;stroke-width:1.0;"/><polygon fill="none" points="391,236.84,385,254.84,397,254.84,391,236.84" style="stroke:#181818;stroke-width:1.0;"/></g><!--reverse link TimedTransition to IntervalDurationTransition--><g id="link_TimedTransition_IntervalDurationTransition"><path codeLine="33" d="M467.2041,243.7662 C508.5341,260.9962 547.4,277.22 592.49,296.03 " fill="none" id="TimedTransition-backto-IntervalDurationTransition" style="stroke:#181818;stroke-width:1.0;"/><polygon fill="none" points="450.59,236.84,464.8953,249.3042,469.5128,238.2282,450.59,236.84" style="stroke:#181818;stroke-width:1.0;"/></g><!--SRC=[ZL3DJWCX4Bxp51mrfaczzk15OzAxBq2NQPsKdmaCwgRstONgkgm1TGu4vfllPuX7TAI2idAdXkCX-EJqlJS-I0xAnGo1On6_foAF1l8PSE1aJOKOTC0ZWIHlnlAeCESrH21vkruByOmQ95ZYKLgmEmXH2Chcwf2vMKEUXCmrjUPEANGCOQy6a4yb7p9wTm7F2r94soGzfA0w54OBkkrKaDckcYbrexyqhwutI_tPezHFbLMYrVjTlKR3Ucip2HL3RJzhjk19TsdN4d_4Dz1Julv- -pBswsezeVz7sPRRYp9_fp7-5K8ZpGLCH4sm-h6-KIVj9__y0G00]--></g></svg>