<?xml version="1.0" encoding="UTF-8" standalone="no"?>
<!DOCTYPE svg PUBLIC "-//W3C//DTD SVG 1.1//EN"
 "http://www.w3.org/Graphics/SVG/1.1/DTD/svg11.dtd">
<!-- Generated by graphviz version 9.0.0 (20230911.1827)
 -->
<!-- Pages: 1 -->
<svg width="209pt" height="61pt"
 viewBox="0.00 0.00 208.70 60.50" xmlns="http://www.w3.org/2000/svg" xmlns:xlink="http://www.w3.org/1999/xlink">
<g id="net0" class="graph" transform="scale(1 1) rotate(0) translate(4 56.5)">
<!-- p1 -->
<g id="net0_node1" class="node">
<title>p1</title>
<ellipse fill="none" stroke="black" cx="31.5" cy="-34.5" rx="18" ry="18"/>
<text text-anchor="middle" x="6.75" y="-3.2" font-family="Times,serif" font-size="14.00">p1</text>
</g>
<!-- t1 -->
<g id="net0_node3" class="node">
<title>t1</title>
<polygon fill="lightblue" stroke="darkblue" stroke-dasharray="5,2" points="110.7,-52.5 103.5,-52.5 103.5,-16.5 110.7,-16.5 110.7,-52.5"/>
<text text-anchor="start" x="65.25" y="-4.2" font-family="Times,serif" font-size="14.00">t2:</text>
<text text-anchor="start" x="79.5" y="-4.2" font-family="Times,serif" font-size="14.00" fill="blue">π1/2</text>
</g>
<!-- p1&#45;&gt;t1 -->
<g id="net0_edge1" class="edge">
<title>p1&#45;&gt;t1</title>
<path fill="none" stroke="black" d="M49.94,-34.5C62.76,-34.5 79.95,-34.5 91.92,-34.5"/>
<polygon fill="black" stroke="black" points="91.78,-38 101.78,-34.5 91.78,-31 91.78,-38"/>
</g>
<!-- p2 -->
<g id="net0_node2" class="node">
<title>p2</title>
<ellipse fill="none" stroke="black" cx="182.7" cy="-34.5" rx="18" ry="18"/>
<text text-anchor="middle" x="157.95" y="-3.2" font-family="Times,serif" font-size="14.00">p2</text>
</g>
<!-- t1&#45;&gt;p2 -->
<g id="net0_edge2" class="edge">
<title>t1&#45;&gt;p2</title>
<path fill="none" stroke="black" d="M110.9,-34.5C117.87,-34.5 136.65,-34.5 153.12,-34.5"/>
<polygon fill="black" stroke="black" points="152.99,-38 162.99,-34.5 152.99,-31 152.99,-38"/>
</g>
</g>
</svg>
