<?xml version="1.0" encoding="us-ascii" standalone="no"?><svg xmlns="http://www.w3.org/2000/svg" xmlns:xlink="http://www.w3.org/1999/xlink" contentStyleType="text/css" height="583px" preserveAspectRatio="none" style="width:986px;height:583px;" version="1.1" viewBox="0 0 986 583" width="986px" zoomAndPan="magnify"><defs/><g><!--cluster pnet--><g id="cluster_pnet"><polygon fill="none" points="16,6,54,6,61,28.4883,969,28.4883,969,530.53,16,530.53,16,6" style="stroke:#000000;stroke-width:1.5;"/><line style="stroke:#000000;stroke-width:1.5;" x1="16" x2="61" y1="28.4883" y2="28.4883"/><text fill="#000000" font-family="sans-serif" font-size="14" font-weight="bold" lengthAdjust="spacing" textLength="32" x="20" y="21.5352">pnet</text></g><!--cluster net--><g id="cluster_net"><polygon fill="none" points="567,416.8,596,416.8,603,439.2883,945,439.2883,945,494.29,567,494.29,567,416.8" style="stroke:#000000;stroke-width:1.5;"/><line style="stroke:#000000;stroke-width:1.5;" x1="567" x2="603" y1="439.2883" y2="439.2883"/><text fill="#000000" font-family="sans-serif" font-size="14" font-weight="bold" lengthAdjust="spacing" textLength="23" x="571" y="432.3352">net</text></g><!--cluster game--><g id="cluster_game"><polygon fill="none" points="40,49,85,49,92,71.4883,543,71.4883,543,506.53,40,506.53,40,49" style="stroke:#000000;stroke-width:1.5;"/><line style="stroke:#000000;stroke-width:1.5;" x1="40" x2="92" y1="71.4883" y2="71.4883"/><text fill="#000000" font-family="sans-serif" font-size="14" font-weight="bold" lengthAdjust="spacing" textLength="39" x="44" y="64.5352">game</text></g><!--class Net--><g id="elem_Net"><rect codeLine="12" fill="#F1F1F1" height="26.4883" id="Net" rx="2.5" ry="2.5" style="stroke:#181818;stroke-width:0.5;" width="29" x="723.5" y="451.8"/><text fill="#000000" font-family="sans-serif" font-size="14" font-style="italic" lengthAdjust="spacing" textLength="23" x="726.5" y="470.3352">Net</text></g><!--class Place--><g id="elem_Place"><rect codeLine="13" fill="#F1F1F1" height="26.4883" id="Place" rx="2.5" ry="2.5" style="stroke:#181818;stroke-width:0.5;" width="41" x="582.5" y="451.8"/><text fill="#000000" font-family="sans-serif" font-size="14" font-style="italic" lengthAdjust="spacing" textLength="35" x="585.5" y="470.3352">Place</text></g><!--class Transition--><g id="elem_Transition"><rect codeLine="14" fill="#F1F1F1" height="26.4883" id="Transition" rx="2.5" ry="2.5" style="stroke:#181818;stroke-width:0.5;" width="76" x="853" y="451.8"/><text fill="#000000" font-family="sans-serif" font-size="14" font-style="italic" lengthAdjust="spacing" textLength="70" x="856" y="470.3352">Transition</text></g><!--class Game--><g id="elem_Game"><rect codeLine="17" fill="#F1F1F1" height="83.9531" id="Game" rx="2.5" ry="2.5" style="stroke:#181818;stroke-width:0.5;" width="243" x="283.5" y="84"/><text fill="#000000" font-family="sans-serif" font-size="14" font-style="italic" lengthAdjust="spacing" textLength="39" x="385.5" y="102.5352">Game</text><line style="stroke:#181818;stroke-width:0.5;" x1="284.5" x2="525.5" y1="110.4883" y2="110.4883"/><ellipse cx="294.5" cy="124.2324" fill="#84BE84" rx="3" ry="3" style="stroke:#038048;stroke-width:1.0;"/><text fill="#000000" font-family="sans-serif" font-size="14" lengthAdjust="spacing" textLength="217" x="303.5" y="128.0234">is_enabled(Transition): boolean</text><ellipse cx="294.5" cy="140.7207" fill="#84BE84" rx="3" ry="3" style="stroke:#038048;stroke-width:1.0;"/><text fill="#000000" font-family="sans-serif" font-size="14" lengthAdjust="spacing" textLength="189" x="303.5" y="144.5117">enabled(): Vec&lt;Transition&gt;</text><ellipse cx="294.5" cy="157.209" fill="#84BE84" rx="3" ry="3" style="stroke:#038048;stroke-width:1.0;"/><text fill="#000000" font-family="sans-serif" font-size="14" lengthAdjust="spacing" textLength="100" x="303.5" y="161">step_forward()</text></g><!--class Step--><g id="elem_Step"><rect codeLine="35" fill="#F1F1F1" height="40.6211" id="Step" rx="2.5" ry="2.5" style="stroke:#181818;stroke-width:0.5;" width="65" x="458.5" y="227.96"/><text fill="#000000" font-family="sans-serif" font-size="12" font-style="italic" lengthAdjust="spacing" textLength="63" x="459.5" y="244.5616">&#171;datatype&#187;</text><text fill="#000000" font-family="sans-serif" font-size="14" lengthAdjust="spacing" textLength="30" x="476" y="260.628">Step</text></g><!--class NetMarking--><g id="elem_NetMarking"><rect codeLine="27" fill="#F1F1F1" height="26.4883" id="NetMarking" rx="2.5" ry="2.5" style="stroke:#181818;stroke-width:0.5;" width="85" x="273.5" y="235.02"/><text fill="#000000" font-family="sans-serif" font-size="14" font-style="italic" lengthAdjust="spacing" textLength="79" x="276.5" y="253.5552">NetMarking</text></g><!--class PlaceMarking--><g id="elem_PlaceMarking"><rect codeLine="31" fill="#F1F1F1" height="26.4883" id="PlaceMarking" rx="2.5" ry="2.5" style="stroke:#181818;stroke-width:0.5;" width="97" x="263.5" y="340.82"/><text fill="#000000" font-family="sans-serif" font-size="14" font-style="italic" lengthAdjust="spacing" textLength="91" x="266.5" y="359.3552">PlaceMarking</text></g><!--class Tokens--><g id="elem_Tokens"><rect codeLine="39" fill="#F1F1F1" height="50.9766" id="Tokens" rx="2.5" ry="2.5" style="stroke:#181818;stroke-width:0.5;" width="108" x="56" y="328.58"/><text fill="#000000" font-family="sans-serif" font-size="14" font-style="italic" lengthAdjust="spacing" textLength="50" x="85" y="347.1152">Tokens</text><line style="stroke:#181818;stroke-width:0.5;" x1="57" x2="163" y1="355.0683" y2="355.0683"/><ellipse cx="67" cy="368.8124" fill="none" rx="3" ry="3" style="stroke:#038048;stroke-width:1.0;"/><text fill="#000000" font-family="sans-serif" font-size="14" lengthAdjust="spacing" textLength="82" x="76" y="372.6034">value: Value</text></g><!--class Duration--><g id="elem_Duration"><rect codeLine="36" fill="#F1F1F1" height="40.6211" id="Duration" rx="2.5" ry="2.5" style="stroke:#181818;stroke-width:0.5;" width="66" x="461" y="333.76"/><text fill="#000000" font-family="sans-serif" font-size="12" font-style="italic" lengthAdjust="spacing" textLength="63" x="462.5" y="350.3616">&#171;datatype&#187;</text><text fill="#000000" font-family="sans-serif" font-size="14" lengthAdjust="spacing" textLength="60" x="464" y="366.428">Duration</text></g><!--class Value--><g id="elem_Value"><rect codeLine="42" fill="#F1F1F1" height="50.9766" id="Value" rx="2.5" ry="2.5" style="stroke:#181818;stroke-width:0.5;" width="120" x="56" y="439.56"/><text fill="#000000" font-family="sans-serif" font-size="14" font-style="italic" lengthAdjust="spacing" textLength="38" x="97" y="458.0952">Value</text><line style="stroke:#181818;stroke-width:0.5;" x1="57" x2="175" y1="466.0483" y2="466.0483"/><ellipse cx="67" cy="479.7924" fill="none" rx="3" ry="3" style="stroke:#038048;stroke-width:1.0;"/><text fill="#000000" font-family="sans-serif" font-size="14" lengthAdjust="spacing" text-decoration="underline" textLength="94" x="76" y="483.5834">default: Value</text></g><!--class Countable--><g id="elem_Countable"><rect codeLine="8" fill="#F1F1F1" height="26.4883" id="Countable" rx="2.5" ry="2.5" style="stroke:#181818;stroke-width:0.5;" width="77" x="77.5" y="550.53"/><text fill="#000000" font-family="sans-serif" font-size="14" font-style="italic" lengthAdjust="spacing" textLength="71" x="80.5" y="569.0652">Countable</text></g><!--link Game to Step--><g id="link_Game_Step"><path codeLine="22" d="M441.5799,178.1412 C455.9599,198.2512 462.0897,206.8397 473.5397,222.8497 " fill="none" id="Game-Step" style="stroke:#181818;stroke-width:1.0;"/><polygon fill="#181818" points="434.6,168.38,434.8362,175.5872,441.5799,178.1412,441.3437,170.934,434.6,168.38" style="stroke:#181818;stroke-width:1.0;"/><polygon fill="#181818" points="477.03,227.73,475.0481,218.0826,474.1214,223.663,468.541,222.7364,477.03,227.73" style="stroke:#181818;stroke-width:1.0;"/><text fill="#000000" font-family="sans-serif" font-size="13" lengthAdjust="spacing" textLength="37" x="430.4919" y="217.1071">+step</text></g><!--link Game to Net--><g id="link_Game_Net"><path codeLine="23" d="M484.5308,174.4958 C531.2008,202.3858 574,227.96 574,227.96 C574,227.96 691.6973,397.382 725.7573,446.422 " fill="none" id="Game-Net" style="stroke:#181818;stroke-width:1.0;"/><polygon fill="none" points="474.23,168.34,477.3285,174.8515,484.5308,174.4958,481.4323,167.9843,474.23,168.34" style="stroke:#181818;stroke-width:1.0;"/><polygon fill="#181818" points="729.18,451.35,727.3313,441.6762,726.3278,447.2433,720.7606,446.2398,729.18,451.35" style="stroke:#181818;stroke-width:1.0;"/><text fill="#000000" font-family="sans-serif" font-size="13" lengthAdjust="spacing" textLength="8" x="476.2183" y="188.5675">1</text><text fill="#000000" font-family="sans-serif" font-size="13" lengthAdjust="spacing" textLength="8" x="716.4526" y="441.1603">1</text></g><!--link Game to NetMarking--><g id="link_Game_NetMarking"><path codeLine="24" d="M367.2312,178.0256 C350.0312,201.2656 340.4798,214.1875 328.9098,229.8175 " fill="none" id="Game-NetMarking" style="stroke:#181818;stroke-width:1.0;"/><polygon fill="none" points="374.37,168.38,367.5854,170.8232,367.2312,178.0256,374.0158,175.5824,374.37,168.38" style="stroke:#181818;stroke-width:1.0;"/><polygon fill="#181818" points="325.34,234.64,333.9097,229.7861,328.3148,230.6213,327.4797,225.0264,325.34,234.64" style="stroke:#181818;stroke-width:1.0;"/><text fill="#000000" font-family="sans-serif" font-size="13" lengthAdjust="spacing" textLength="8" x="361.0673" y="188.6136">1</text><text fill="#000000" font-family="sans-serif" font-size="13" lengthAdjust="spacing" textLength="8" x="319.3759" y="224.214">1</text></g><!--link Game to Transition--><g id="link_Game_Transition"><path codeLine="25" d="M490.2,168.34 C547.64,196.23 613,227.96 613,227.96 C613,227.96 813.7368,398.4259 871.4768,447.4659 " fill="none" id="Game-to-Transition" style="stroke:#181818;stroke-width:1.0;stroke-dasharray:7.0,7.0;"/><polygon fill="#181818" points="876.05,451.35,871.7797,442.4751,872.239,448.1133,866.6009,448.5726,876.05,451.35" style="stroke:#181818;stroke-width:1.0;"/></g><!--link NetMarking to Step--><g id="link_NetMarking_Step"><path codeLine="28" d="M370.7,248.27 C379.6,248.27 374.33,248.27 374.33,248.27 C374.33,248.27 432.67,248.27 432.67,248.27 C432.67,248.27 438.85,248.27 452.08,248.27 " fill="none" id="NetMarking-Step" style="stroke:#181818;stroke-width:1.0;"/><polygon fill="#181818" points="358.7,248.27,364.7,252.27,370.7,248.27,364.7,244.27,358.7,248.27" style="stroke:#181818;stroke-width:1.0;"/><polygon fill="#181818" points="458.08,248.27,449.08,244.27,453.08,248.27,449.08,252.27,458.08,248.27" style="stroke:#181818;stroke-width:1.0;"/><text fill="#000000" font-family="sans-serif" font-size="13" lengthAdjust="spacing" textLength="37" x="413.5277" y="244.7595">+step</text></g><!--link NetMarking to PlaceMarking--><g id="link_NetMarking_PlaceMarking"><path codeLine="29" d="M315.049,273.9911 C314.279,294.0211 313.4821,314.6745 312.7121,334.5645 " fill="none" id="NetMarking-PlaceMarking" style="stroke:#181818;stroke-width:1.0;"/><polygon fill="#181818" points="315.51,262,311.2825,267.8419,315.049,273.9911,319.2766,268.1492,315.51,262" style="stroke:#181818;stroke-width:1.0;"/><polygon fill="#181818" points="312.48,340.56,316.8252,331.7215,312.6734,335.5637,308.8311,331.412,312.48,340.56" style="stroke:#181818;stroke-width:1.0;"/><text fill="#000000" font-family="sans-serif" font-size="13" lengthAdjust="spacing" textLength="60" x="241.2255" y="330.1797">+places *</text></g><!--link PlaceMarking to Place--><g id="link_PlaceMarking_Place"><path codeLine="32" d="M360.92,367.17 C385.86,373.34 411,379.56 411,379.56 C411,379.56 560,408.8 560,408.8 C560,408.8 576.876,430.4742 589.556,446.7742 " fill="none" id="PlaceMarking-to-Place" style="stroke:#181818;stroke-width:1.0;"/><polygon fill="#181818" points="593.24,451.51,590.8711,441.9503,590.17,447.5635,584.5567,446.8623,593.24,451.51" style="stroke:#181818;stroke-width:1.0;"/></g><!--link Tokens to PlaceMarking--><g id="link_Tokens_PlaceMarking"><path codeLine="33" d="M170.35,354.07 C178.01,354.07 177.33,354.07 177.33,354.07 C177.33,354.07 244.67,354.07 244.67,354.07 C244.67,354.07 240.62,354.07 251.07,354.07 " fill="none" id="Tokens-PlaceMarking" style="stroke:#181818;stroke-width:1.0;"/><polygon fill="#181818" points="164.35,354.07,173.35,358.07,169.35,354.07,173.35,350.07,164.35,354.07" style="stroke:#181818;stroke-width:1.0;"/><polygon fill="#181818" points="263.07,354.07,257.07,350.07,251.07,354.07,257.07,358.07,263.07,354.07" style="stroke:#181818;stroke-width:1.0;"/></g><!--reverse link Step to Duration--><g id="link_Step_Duration"><path codeLine="37" d="M491.7356,274.7874 C492.2756,293.2274 492.89,314.75 493.43,333.28 " fill="none" id="Step-backto-Duration" style="stroke:#181818;stroke-width:1.0;stroke-dasharray:7.0,7.0;"/><polygon fill="#181818" points="491.56,268.79,487.8252,277.9032,491.7064,273.7879,495.8217,277.6691,491.56,268.79" style="stroke:#181818;stroke-width:1.0;"/></g><!--reverse link Tokens to Value--><g id="link_Tokens_Value"><path codeLine="45" d="M112.2381,395.7759 C113.2181,413.6059 113.66,421.6 114.64,439.41 " fill="none" id="Tokens-backto-Value" style="stroke:#181818;stroke-width:1.0;"/><ellipse cx="111.799" cy="387.7879" fill="none" rx="8" ry="8" style="stroke:#181818;stroke-width:1.0;"/><line style="stroke:#181818;stroke-width:1.0;" x1="112.2381" x2="111.36" y1="395.7759" y2="379.8"/><line style="stroke:#181818;stroke-width:1.0;" x1="103.8111" x2="119.787" y1="388.227" y2="387.3489"/></g><!--link Value to Countable--><g id="link_Value_Countable"><path codeLine="46" d="M116,490.95 C116,509.88 116,517.11 116,532.08 " fill="none" id="Value-to-Countable" style="stroke:#181818;stroke-width:1.0;"/><polygon fill="none" points="116,550.08,122,532.08,110,532.08,116,550.08" style="stroke:#181818;stroke-width:1.0;"/></g><!--SRC=[TLDDRy8m3BttLrWzRI0GN2VK2vDssZHfQ5TaMiCYqYHAqY74-EzpMleHL798Kx_dvrV7TKUX35eiOOVvyM1rfOgrbjg2jwWSGwHyuZgMysT9l5kH-wgK0qGAHVvi28oMv_0om9Gko961vMAH93-Y8A3I-3EKLEx8kYGHofFTOqwmPWSUTvAInB0ZFB0W2yCb0Lvjg8-4rMT_a1-9VahUH-ARy8d22wrgy1gLE619epNUOY2igN1RKi5ryTIBFh_0Jcj9g69oosJyc_9Ldv35FEV9RFVQdj0okSEktQbsCfbbaDRS5BvuZz5qcOAU5Vga0erVXXqQC7hq7ItVso4cpOF2F1jsRBpxjsouz2u7qOTU8qxhTch2lJcOfCqDjiuUtV18xIZU2iVZ454cCqbxpvoDFf9o7Qaxv1ATgxt3QbMWnp3oMNQ7lrOMGvF6EHqwhmptj6x4s7JM5kudxHTbHJmuuJ4o4drwpRZBlZWs8_8hJ0lQOoNzOw5RzMdJj3jQezr0VzdWdsqqhly0]--></g></svg>