<?xml version="1.0" encoding="us-ascii" standalone="no"?><svg xmlns="http://www.w3.org/2000/svg" xmlns:xlink="http://www.w3.org/1999/xlink" contentStyleType="text/css" height="539px" preserveAspectRatio="none" style="width:625px;height:539px;" version="1.1" viewBox="0 0 625 539" width="625px" zoomAndPan="magnify"><defs/><g><!--cluster pnet--><g id="cluster_pnet"><polygon fill="none" points="16,6,54,6,61,28.4883,608,28.4883,608,532.39,16,532.39,16,6" style="stroke:#000000;stroke-width:1.5;"/><line style="stroke:#000000;stroke-width:1.5;" x1="16" x2="61" y1="28.4883" y2="28.4883"/><text fill="#000000" font-family="sans-serif" font-size="14" font-weight="bold" lengthAdjust="spacing" textLength="32" x="20" y="21.5352">pnet</text></g><!--cluster net--><g id="cluster_net"><polygon fill="none" points="522,184.46,551,184.46,558,206.9483,584,206.9483,584,261.95,522,261.95,522,184.46" style="stroke:#000000;stroke-width:1.5;"/><line style="stroke:#000000;stroke-width:1.5;" x1="522" x2="558" y1="206.9483" y2="206.9483"/><text fill="#000000" font-family="sans-serif" font-size="14" font-weight="bold" lengthAdjust="spacing" textLength="23" x="526" y="199.9952">net</text></g><!--cluster sim--><g id="cluster_sim"><polygon fill="none" points="40,49,73,49,80,71.4883,498,71.4883,498,508.39,40,508.39,40,49" style="stroke:#000000;stroke-width:1.5;"/><line style="stroke:#000000;stroke-width:1.5;" x1="40" x2="80" y1="71.4883" y2="71.4883"/><text fill="#000000" font-family="sans-serif" font-size="14" font-weight="bold" lengthAdjust="spacing" textLength="27" x="44" y="64.5352">sim</text></g><!--class Net--><g id="elem_Net"><rect codeLine="10" fill="#F1F1F1" height="26.4883" id="Net" rx="2.5" ry="2.5" style="stroke:#181818;stroke-width:0.5;" width="29" x="538.5" y="219.46"/><text fill="#000000" font-family="sans-serif" font-size="14" font-style="italic" lengthAdjust="spacing" textLength="23" x="541.5" y="237.9952">Net</text></g><!--class Tokens--><g id="elem_Tokens"><rect codeLine="13" fill="#F1F1F1" height="50.9766" id="Tokens" rx="2.5" ry="2.5" style="stroke:#181818;stroke-width:0.5;" width="108" x="102" y="330.44"/><text fill="#000000" font-family="sans-serif" font-size="14" font-style="italic" lengthAdjust="spacing" textLength="50" x="131" y="348.9752">Tokens</text><line style="stroke:#181818;stroke-width:0.5;" x1="103" x2="209" y1="356.9283" y2="356.9283"/><ellipse cx="113" cy="370.6724" fill="none" rx="3" ry="3" style="stroke:#038048;stroke-width:1.0;"/><text fill="#000000" font-family="sans-serif" font-size="14" lengthAdjust="spacing" textLength="82" x="122" y="374.4634">value: Value</text></g><!--class Value--><g id="elem_Value"><rect codeLine="16" fill="#F1F1F1" height="50.9766" id="Value" rx="2.5" ry="2.5" style="stroke:#181818;stroke-width:0.5;" width="120" x="96" y="441.41"/><text fill="#000000" font-family="sans-serif" font-size="14" font-style="italic" lengthAdjust="spacing" textLength="38" x="137" y="459.9452">Value</text><line style="stroke:#181818;stroke-width:0.5;" x1="97" x2="215" y1="467.8983" y2="467.8983"/><ellipse cx="107" cy="481.6424" fill="none" rx="3" ry="3" style="stroke:#038048;stroke-width:1.0;"/><text fill="#000000" font-family="sans-serif" font-size="14" lengthAdjust="spacing" text-decoration="underline" textLength="94" x="116" y="485.4334">default: Value</text></g><!--class Marking--><g id="elem_Marking"><rect codeLine="20" fill="#F1F1F1" height="75.4648" id="Marking" rx="2.5" ry="2.5" style="stroke:#181818;stroke-width:0.5;" width="200" x="56" y="194.97"/><text fill="#000000" font-family="sans-serif" font-size="14" font-style="italic" lengthAdjust="spacing" textLength="56" x="128" y="213.5052">Marking</text><line style="stroke:#181818;stroke-width:0.5;" x1="57" x2="255" y1="221.4583" y2="221.4583"/><ellipse cx="67" cy="235.2024" fill="none" rx="3" ry="3" style="stroke:#038048;stroke-width:1.0;"/><text fill="#000000" font-family="sans-serif" font-size="14" lengthAdjust="spacing" textLength="67" x="76" y="238.9934">step: Step</text><line style="stroke:#181818;stroke-width:0.5;" x1="57" x2="255" y1="245.9466" y2="245.9466"/><ellipse cx="67" cy="259.6907" fill="#84BE84" rx="3" ry="3" style="stroke:#038048;stroke-width:1.0;"/><text fill="#000000" font-family="sans-serif" font-size="14" lengthAdjust="spacing" textLength="174" x="76" y="263.4817">marking(NodeId): Tokens</text></g><!--class Step--><g id="elem_Step"><rect codeLine="26" fill="#F1F1F1" height="40.6211" id="Step" rx="2.5" ry="2.5" style="stroke:#181818;stroke-width:0.5;" width="65" x="416.5" y="89.17"/><text fill="#000000" font-family="sans-serif" font-size="12" font-style="italic" lengthAdjust="spacing" textLength="63" x="417.5" y="105.7716">&#171;datatype&#187;</text><text fill="#000000" font-family="sans-serif" font-size="14" lengthAdjust="spacing" textLength="30" x="434" y="121.838">Step</text></g><!--class Duration--><g id="elem_Duration"><rect codeLine="27" fill="#F1F1F1" height="40.6211" id="Duration" rx="2.5" ry="2.5" style="stroke:#181818;stroke-width:0.5;" width="66" x="250" y="89.17"/><text fill="#000000" font-family="sans-serif" font-size="12" font-style="italic" lengthAdjust="spacing" textLength="63" x="251.5" y="105.7716">&#171;datatype&#187;</text><text fill="#000000" font-family="sans-serif" font-size="14" lengthAdjust="spacing" textLength="60" x="253" y="121.838">Duration</text></g><!--class Simulation--><g id="elem_Simulation"><rect codeLine="29" fill="#F1F1F1" height="50.9766" id="Simulation" rx="2.5" ry="2.5" style="stroke:#181818;stroke-width:0.5;" width="93" x="56.5" y="84"/><text fill="#000000" font-family="sans-serif" font-size="14" font-style="italic" lengthAdjust="spacing" textLength="73" x="66.5" y="102.5352">Simulation</text><line style="stroke:#181818;stroke-width:0.5;" x1="57.5" x2="148.5" y1="110.4883" y2="110.4883"/><ellipse cx="67.5" cy="124.2324" fill="none" rx="3" ry="3" style="stroke:#038048;stroke-width:1.0;"/><text fill="#000000" font-family="sans-serif" font-size="14" lengthAdjust="spacing" textLength="67" x="76.5" y="128.0234">step: Step</text></g><!--reverse link Tokens to Value--><g id="link_Tokens_Value"><path codeLine="19" d="M156,397.65 C156,415.49 156,423.46 156,441.27 " fill="none" id="Tokens-backto-Value" style="stroke:#181818;stroke-width:1.0;"/><ellipse cx="156" cy="389.65" fill="none" rx="8" ry="8" style="stroke:#181818;stroke-width:1.0;"/><line style="stroke:#181818;stroke-width:1.0;" x1="156" x2="156" y1="397.65" y2="381.65"/><line style="stroke:#181818;stroke-width:1.0;" x1="148" x2="164" y1="389.65" y2="389.65"/></g><!--link Marking to Tokens--><g id="link_Marking_Tokens"><path codeLine="24" d="M156,270.73 C156,289.95 156,306.91 156,324 " fill="none" id="Marking-to-Tokens" style="stroke:#181818;stroke-width:1.0;stroke-dasharray:7.0,7.0;"/><polygon fill="#181818" points="156,330,160,321,156,325,152,321,156,330" style="stroke:#181818;stroke-width:1.0;"/></g><!--link Simulation to Net--><g id="link_Simulation_Net"><path codeLine="32" d="M161.4351,125.2369 C186.2351,131.4969 200,134.97 200,134.97 C200,134.97 515,176.46 515,176.46 C515,176.46 529.7701,197.9263 540.9801,214.2263 " fill="none" id="Simulation-Net" style="stroke:#181818;stroke-width:1.0;"/><polygon fill="none" points="149.8,122.3,154.6386,127.6468,161.4351,125.2369,156.5965,119.8901,149.8,122.3" style="stroke:#181818;stroke-width:1.0;"/><polygon fill="#181818" points="544.38,219.17,542.5759,209.4878,541.5467,215.0502,535.9843,214.021,544.38,219.17" style="stroke:#181818;stroke-width:1.0;"/><text fill="#000000" font-family="sans-serif" font-size="13" lengthAdjust="spacing" textLength="8" x="157.5788" y="120.7055">1</text><text fill="#000000" font-family="sans-serif" font-size="13" lengthAdjust="spacing" textLength="8" x="531.5686" y="208.7783">1</text></g><!--link Simulation to Marking--><g id="link_Simulation_Marking"><path codeLine="33" d="M118.6571,146.3051 C126.1071,163.3451 128.9137,169.7736 137.3237,188.9836 " fill="none" id="Simulation-Marking" style="stroke:#181818;stroke-width:1.0;"/><polygon fill="none" points="113.85,135.31,112.5885,142.4099,118.6571,146.3051,119.9186,139.2052,113.85,135.31" style="stroke:#181818;stroke-width:1.0;"/><polygon fill="#181818" points="139.73,194.48,139.7848,184.6313,137.7248,189.8997,132.4564,187.8396,139.73,194.48" style="stroke:#181818;stroke-width:1.0;"/><text fill="#000000" font-family="sans-serif" font-size="13" lengthAdjust="spacing" textLength="8" x="107.4341" y="155.6199">1</text><text fill="#000000" font-family="sans-serif" font-size="13" lengthAdjust="spacing" textLength="8" x="128.2461" y="184.2165">1</text></g><!--SRC=[XL8vRiCm4EpvYeMh188CknKCDKcJ8cuSfAV5jKA85tW440pzFPIi6qgo1O-TsHqEILTnPQYb4gwqg4ghWs8lMcWBtbBb8eJA4pUodAy5nj7omWSfPeZW2drj48mMTRkPOKepT6ZWU3WGyiKP0ahZQv0ehsWT8IQAqpBMnXvm9n1ZI4sPDhZoQ6-qG3YZxxBDWksut6H_w0gLcq5j9DzK1CpWivr6fDaexnYhwhlprFEYWOJXZGRXVs_KgoTfkg9C2k_KnkigroTq7aq6bpWky_91Vph7ctrZpraliQ4zDDxlypLfN1I2EjUfmEd4QFGL7pBFL_XhiD6mLalEXfSBbq4ygF_RcKuwAziTTw3JDEyMmql_nUbTzZ-Y-G40]--></g></svg>