<?xml version="1.0" encoding="UTF-8" standalone="no"?>
<!DOCTYPE svg PUBLIC "-//W3C//DTD SVG 1.1//EN"
 "http://www.w3.org/Graphics/SVG/1.1/DTD/svg11.dtd">
<!-- Generated by graphviz version 9.0.0 (20230911.1827)
 -->
<!-- Pages: 1 -->
<svg width="209pt" height="151pt"
 viewBox="0.00 0.00 208.70 150.50" xmlns="http://www.w3.org/2000/svg" xmlns:xlink="http://www.w3.org/1999/xlink">
<g id="net0" class="graph" transform="scale(1 1) rotate(0) translate(4 146.5)">
<!-- p1 -->
<g id="net0_node1" class="node">
<title>p1</title>
<ellipse fill="none" stroke="black" cx="31.5" cy="-79.5" rx="18" ry="18"/>
<text text-anchor="middle" x="31.5" y="-74.45" font-family="Times,serif" font-size="14.00">â—</text>
<text text-anchor="middle" x="6.75" y="-48.2" font-family="Times,serif" font-size="14.00">p1</text>
</g>
<!-- t1 -->
<g id="net0_node4" class="node">
<title>t1</title>
<polygon fill="lightgreen" stroke="darkgreen" points="110.7,-142.5 103.5,-142.5 103.5,-106.5 110.7,-106.5 110.7,-142.5"/>
<text text-anchor="middle" x="98.25" y="-93.2" font-family="Times,serif" font-size="14.00">t1</text>
</g>
<!-- p1&#45;&gt;t1 -->
<g id="net0_edge1" class="edge">
<title>p1&#45;&gt;t1</title>
<path fill="none" stroke="black" d="M47.39,-88.61C60.89,-96.86 80.57,-108.89 93.35,-116.71"/>
<polygon fill="black" stroke="black" points="91.42,-119.63 101.78,-121.86 95.07,-113.66 91.42,-119.63"/>
</g>
<!-- t2 -->
<g id="net0_node5" class="node">
<title>t2</title>
<polygon fill="lightgreen" stroke="darkgreen" points="110.7,-52.5 103.5,-52.5 103.5,-16.5 110.7,-16.5 110.7,-52.5"/>
<text text-anchor="middle" x="98.25" y="-3.2" font-family="Times,serif" font-size="14.00">t2</text>
</g>
<!-- p1&#45;&gt;t2 -->
<g id="net0_edge2" class="edge">
<title>p1&#45;&gt;t2</title>
<path fill="none" stroke="black" d="M47.39,-70.39C60.89,-62.14 80.57,-50.11 93.35,-42.29"/>
<polygon fill="black" stroke="black" points="95.07,-45.34 101.78,-37.14 91.42,-39.37 95.07,-45.34"/>
</g>
<!-- p2 -->
<g id="net0_node2" class="node">
<title>p2</title>
<ellipse fill="none" stroke="darkgrey" cx="182.7" cy="-124.5" rx="18" ry="18"/>
<text text-anchor="middle" x="157.95" y="-93.2" font-family="Times,serif" font-size="14.00">p2</text>
</g>
<!-- p3 -->
<g id="net0_node3" class="node">
<title>p3</title>
<ellipse fill="none" stroke="darkgrey" cx="182.7" cy="-34.5" rx="18" ry="18"/>
<text text-anchor="middle" x="157.95" y="-3.2" font-family="Times,serif" font-size="14.00">p3</text>
</g>
<!-- t1&#45;&gt;p2 -->
<g id="net0_edge3" class="edge">
<title>t1&#45;&gt;p2</title>
<path fill="none" stroke="black" d="M110.9,-124.5C117.87,-124.5 136.65,-124.5 153.12,-124.5"/>
<polygon fill="black" stroke="black" points="152.99,-128 162.99,-124.5 152.99,-121 152.99,-128"/>
</g>
<!-- t2&#45;&gt;p3 -->
<g id="net0_edge4" class="edge">
<title>t2&#45;&gt;p3</title>
<path fill="none" stroke="black" d="M110.9,-34.5C117.87,-34.5 136.65,-34.5 153.12,-34.5"/>
<polygon fill="black" stroke="black" points="152.99,-38 162.99,-34.5 152.99,-31 152.99,-38"/>
</g>
</g>
</svg>
