<?xml version="1.0" encoding="UTF-8" standalone="no"?>
<!DOCTYPE svg PUBLIC "-//W3C//DTD SVG 1.1//EN"
 "http://www.w3.org/Graphics/SVG/1.1/DTD/svg11.dtd">
<!-- Generated by graphviz version 9.0.0 (20230911.1827)
 -->
<!-- Pages: 1 -->
<svg width="209pt" height="151pt"
 viewBox="0.00 0.00 208.70 150.50" xmlns="http://www.w3.org/2000/svg" xmlns:xlink="http://www.w3.org/1999/xlink">
<g id="net0" class="graph" transform="scale(1 1) rotate(0) translate(4 146.5)">
<!-- p1 -->
<g id="net0_node1" class="node">
<title>p1</title>
<ellipse fill="none" stroke="black" cx="31.5" cy="-124.5" rx="18" ry="18"/>
<text text-anchor="middle" x="31.5" y="-119.45" font-family="Times,serif" font-size="14.00">â—</text>
<text text-anchor="middle" x="6.75" y="-93.2" font-family="Times,serif" font-size="14.00">p1</text>
</g>
<!-- t1 -->
<g id="net0_node4" class="node">
<title>t1</title>
<polygon fill="lightgreen" stroke="darkgreen" points="110.7,-97.5 103.5,-97.5 103.5,-61.5 110.7,-61.5 110.7,-97.5"/>
<text text-anchor="middle" x="98.25" y="-48.2" font-family="Times,serif" font-size="14.00">t1</text>
</g>
<!-- p1&#45;&gt;t1 -->
<g id="net0_edge1" class="edge">
<title>p1&#45;&gt;t1</title>
<path fill="none" stroke="black" d="M47.39,-115.39C60.89,-107.14 80.57,-95.11 93.35,-87.29"/>
<polygon fill="black" stroke="black" points="95.07,-90.34 101.78,-82.14 91.42,-84.37 95.07,-90.34"/>
</g>
<!-- p2 -->
<g id="net0_node2" class="node">
<title>p2</title>
<ellipse fill="none" stroke="black" cx="31.5" cy="-34.5" rx="18" ry="18"/>
<text text-anchor="middle" x="31.5" y="-29.45" font-family="Times,serif" font-size="14.00">â—</text>
<text text-anchor="middle" x="6.75" y="-3.2" font-family="Times,serif" font-size="14.00">p2</text>
</g>
<!-- p2&#45;&gt;t1 -->
<g id="net0_edge2" class="edge">
<title>p2&#45;&gt;t1</title>
<path fill="none" stroke="black" d="M47.39,-43.61C60.89,-51.86 80.57,-63.89 93.35,-71.71"/>
<polygon fill="black" stroke="black" points="91.42,-74.63 101.78,-76.86 95.07,-68.66 91.42,-74.63"/>
</g>
<!-- p3 -->
<g id="net0_node3" class="node">
<title>p3</title>
<ellipse fill="none" stroke="darkgrey" cx="182.7" cy="-79.5" rx="18" ry="18"/>
<text text-anchor="middle" x="157.95" y="-48.2" font-family="Times,serif" font-size="14.00">p3</text>
</g>
<!-- t1&#45;&gt;p3 -->
<g id="net0_edge3" class="edge">
<title>t1&#45;&gt;p3</title>
<path fill="none" stroke="black" d="M110.9,-79.5C117.87,-79.5 136.65,-79.5 153.12,-79.5"/>
<polygon fill="black" stroke="black" points="152.99,-83 162.99,-79.5 152.99,-76 152.99,-83"/>
</g>
</g>
</svg>
