<?xml version="1.0" encoding="UTF-8" standalone="no"?>
<!DOCTYPE svg PUBLIC "-//W3C//DTD SVG 1.1//EN"
 "http://www.w3.org/Graphics/SVG/1.1/DTD/svg11.dtd">
<!-- Generated by graphviz version 9.0.0 (20230911.1827)
 -->
<!-- Pages: 1 -->
<svg width="209pt" height="151pt"
 viewBox="0.00 0.00 208.70 150.50" xmlns="http://www.w3.org/2000/svg" xmlns:xlink="http://www.w3.org/1999/xlink">
<g id="net0" class="graph" transform="scale(1 1) rotate(0) translate(4 146.5)">
<!-- p1 -->
<g id="net0_node1" class="node">
<title>p1</title>
<ellipse fill="none" stroke="black" cx="31.5" cy="-79.5" rx="18" ry="18"/>
<text text-anchor="middle" x="31.5" y="-74.45" font-family="Times,serif" font-size="14.00">â—</text>
<text text-anchor="middle" x="6.75" y="-48.2" font-family="Times,serif" font-size="14.00">p1</text>
</g>
<!-- t1 -->
<g id="net0_node4" class="node">
<title>t1</title>
<polygon fill="lightgreen" stroke="darkgreen" points="110.7,-97.5 103.5,-97.5 103.5,-61.5 110.7,-61.5 110.7,-97.5"/>
<text text-anchor="middle" x="98.25" y="-48.2" font-family="Times,serif" font-size="14.00">t1</text>
</g>
<!-- p1&#45;&gt;t1 -->
<g id="net0_edge1" class="edge">
<title>p1&#45;&gt;t1</title>
<path fill="none" stroke="black" d="M49.94,-79.5C62.76,-79.5 79.95,-79.5 91.92,-79.5"/>
<polygon fill="black" stroke="black" points="91.78,-83 101.78,-79.5 91.78,-76 91.78,-83"/>
</g>
<!-- p2 -->
<g id="net0_node2" class="node">
<title>p2</title>
<ellipse fill="none" stroke="darkgrey" cx="182.7" cy="-124.5" rx="18" ry="18"/>
<text text-anchor="middle" x="157.95" y="-93.2" font-family="Times,serif" font-size="14.00">p2</text>
</g>
<!-- p3 -->
<g id="net0_node3" class="node">
<title>p3</title>
<ellipse fill="none" stroke="darkgrey" cx="182.7" cy="-34.5" rx="18" ry="18"/>
<text text-anchor="middle" x="157.95" y="-3.2" font-family="Times,serif" font-size="14.00">p3</text>
</g>
<!-- t1&#45;&gt;p2 -->
<g id="net0_edge2" class="edge">
<title>t1&#45;&gt;p2</title>
<path fill="none" stroke="black" d="M110.9,-81.21C118.45,-85.83 139.85,-98.91 157.16,-109.5"/>
<polygon fill="black" stroke="black" points="155.1,-112.34 165.46,-114.57 158.75,-106.37 155.1,-112.34"/>
</g>
<!-- t1&#45;&gt;p3 -->
<g id="net0_edge3" class="edge">
<title>t1&#45;&gt;p3</title>
<path fill="none" stroke="black" d="M110.9,-77.79C118.45,-73.17 139.85,-60.09 157.16,-49.5"/>
<polygon fill="black" stroke="black" points="158.75,-52.63 165.46,-44.43 155.1,-46.66 158.75,-52.63"/>
</g>
</g>
</svg>
