<?xml version="1.0" encoding="UTF-8" standalone="no"?>
<!DOCTYPE svg PUBLIC "-//W3C//DTD SVG 1.1//EN"
 "http://www.w3.org/Graphics/SVG/1.1/DTD/svg11.dtd">
<!-- Generated by graphviz version 9.0.0 (20230911.1827)
 -->
<!-- Pages: 1 -->
<svg width="505pt" height="61pt"
 viewBox="0.00 0.00 505.34 60.50" xmlns="http://www.w3.org/2000/svg" xmlns:xlink="http://www.w3.org/1999/xlink">
<g id="net0" class="graph" transform="scale(1 1) rotate(0) translate(4 56.5)">
<!-- p1 -->
<g id="net0_node1" class="node">
<title>p1</title>
<ellipse fill="none" stroke="black" cx="31.5" cy="-34.5" rx="18" ry="18"/>
<text text-anchor="middle" x="6.75" y="-3.2" font-family="Times,serif" font-size="14.00">p1</text>
</g>
<!-- t1 -->
<g id="net0_node5" class="node">
<title>t1</title>
<polygon fill="darkgrey" stroke="black" points="104.94,-52.5 103.5,-52.5 103.5,-16.5 104.94,-16.5 104.94,-52.5"/>
<text text-anchor="middle" x="98.25" y="-3.2" font-family="Times,serif" font-size="14.00">t1</text>
</g>
<!-- p1&#45;&gt;t1 -->
<g id="net0_edge1" class="edge">
<title>p1&#45;&gt;t1</title>
<path fill="none" stroke="black" d="M49.69,-34.5C62.77,-34.5 80.42,-34.5 91.88,-34.5"/>
<polygon fill="black" stroke="black" points="91.61,-38 101.61,-34.5 91.61,-31 91.61,-38"/>
</g>
<!-- p2 -->
<g id="net0_node2" class="node">
<title>p2</title>
<ellipse fill="none" stroke="black" cx="176.94" cy="-34.5" rx="18" ry="18"/>
<text text-anchor="middle" x="152.19" y="-3.2" font-family="Times,serif" font-size="14.00">p2</text>
</g>
<!-- t2 -->
<g id="net0_node6" class="node">
<title>t2</title>
<polygon fill="darkgrey" stroke="black" points="256.14,-52.5 248.94,-52.5 248.94,-16.5 256.14,-16.5 256.14,-52.5"/>
<text text-anchor="middle" x="235.07" y="-3.2" font-family="Times,serif" font-size="14.00">t2:π2</text>
</g>
<!-- p2&#45;&gt;t2 -->
<g id="net0_edge3" class="edge">
<title>p2&#45;&gt;t2</title>
<path fill="none" stroke="black" d="M195.38,-34.5C208.2,-34.5 225.39,-34.5 237.36,-34.5"/>
<polygon fill="black" stroke="black" points="237.22,-38 247.22,-34.5 237.22,-31 237.22,-38"/>
</g>
<!-- p3 -->
<g id="net0_node3" class="node">
<title>p3</title>
<ellipse fill="none" stroke="black" cx="328.14" cy="-34.5" rx="18" ry="18"/>
<text text-anchor="middle" x="303.39" y="-3.2" font-family="Times,serif" font-size="14.00">p3</text>
</g>
<!-- t3 -->
<g id="net0_node7" class="node">
<title>t3</title>
<polygon fill="darkgrey" stroke="black" points="407.34,-52.5 400.14,-52.5 400.14,-16.5 407.34,-16.5 407.34,-52.5"/>
<text text-anchor="middle" x="376.52" y="-3.2" font-family="Times,serif" font-size="14.00">t3:π[1,4]</text>
</g>
<!-- p3&#45;&gt;t3 -->
<g id="net0_edge5" class="edge">
<title>p3&#45;&gt;t3</title>
<path fill="none" stroke="black" d="M346.58,-34.5C359.4,-34.5 376.59,-34.5 388.56,-34.5"/>
<polygon fill="black" stroke="black" points="388.42,-38 398.42,-34.5 388.42,-31 388.42,-38"/>
</g>
<!-- p4 -->
<g id="net0_node4" class="node">
<title>p4</title>
<ellipse fill="none" stroke="black" cx="479.34" cy="-34.5" rx="18" ry="18"/>
<text text-anchor="middle" x="454.59" y="-3.2" font-family="Times,serif" font-size="14.00">p4</text>
</g>
<!-- t1&#45;&gt;p2 -->
<g id="net0_edge2" class="edge">
<title>t1&#45;&gt;p2</title>
<path fill="none" stroke="black" d="M105.39,-34.5C108.69,-34.5 129.33,-34.5 147.44,-34.5"/>
<polygon fill="black" stroke="black" points="147.25,-38 157.25,-34.5 147.25,-31 147.25,-38"/>
</g>
<!-- t2&#45;&gt;p3 -->
<g id="net0_edge4" class="edge">
<title>t2&#45;&gt;p3</title>
<path fill="none" stroke="black" d="M256.34,-34.5C263.31,-34.5 282.09,-34.5 298.56,-34.5"/>
<polygon fill="black" stroke="black" points="298.43,-38 308.43,-34.5 298.43,-31 298.43,-38"/>
</g>
<!-- t3&#45;&gt;p4 -->
<g id="net0_edge6" class="edge">
<title>t3&#45;&gt;p4</title>
<path fill="none" stroke="black" d="M407.54,-34.5C414.51,-34.5 433.29,-34.5 449.76,-34.5"/>
<polygon fill="black" stroke="black" points="449.63,-38 459.63,-34.5 449.63,-31 449.63,-38"/>
</g>
</g>
</svg>
