<?xml version="1.0" encoding="us-ascii" standalone="no"?><svg xmlns="http://www.w3.org/2000/svg" xmlns:xlink="http://www.w3.org/1999/xlink" contentStyleType="text/css" height="506px" preserveAspectRatio="none" style="width:655px;height:506px;" version="1.1" viewBox="0 0 655 506" width="655px" zoomAndPan="magnify"><defs/><g><!--cluster ptnet--><g id="cluster_ptnet"><polygon fill="none" points="16,6,60,6,67,28.4883,638,28.4883,638,499.91,16,499.91,16,6" style="stroke:#000000;stroke-width:1.5;"/><line style="stroke:#000000;stroke-width:1.5;" x1="16" x2="67" y1="28.4883" y2="28.4883"/><text fill="#000000" font-family="sans-serif" font-size="14" font-weight="bold" lengthAdjust="spacing" textLength="38" x="20" y="21.5352">ptnet</text></g><path d="M308,300.96 L332,300.96 A3.75,3.75 0 0 1 334.5,303.46 L341.5,323.4483 L346,323.4483 A2.5,2.5 0 0 1 348.5,325.9483 L348.5,351.4366 A2.5,2.5 0 0 1 346,353.9366 L308,353.9366 A2.5,2.5 0 0 1 305.5,351.4366 L305.5,303.46 A2.5,2.5 0 0 1 308,300.96 " fill="#F1F1F1" style="stroke:#181818;stroke-width:0.5;"/><line style="stroke:#181818;stroke-width:0.5;" x1="305.5" x2="341.5" y1="323.4483" y2="323.4483"/><text fill="#000000" font-family="sans-serif" font-size="14" font-weight="bold" lengthAdjust="spacing" textLength="23" x="309.5" y="316.4952">net</text><path d="M300,170.98 L340,170.98 A3.75,3.75 0 0 1 342.5,173.48 L349.5,193.4683 L354,193.4683 A2.5,2.5 0 0 1 356.5,195.9683 L356.5,221.4566 A2.5,2.5 0 0 1 354,223.9566 L300,223.9566 A2.5,2.5 0 0 1 297.5,221.4566 L297.5,173.48 A2.5,2.5 0 0 1 300,170.98 " fill="#F1F1F1" style="stroke:#181818;stroke-width:0.5;"/><line style="stroke:#181818;stroke-width:0.5;" x1="297.5" x2="349.5" y1="193.4683" y2="193.4683"/><text fill="#000000" font-family="sans-serif" font-size="14" font-weight="bold" lengthAdjust="spacing" textLength="39" x="301.5" y="186.5152">game</text><path d="M516.5,300.96 L575.5,300.96 A3.75,3.75 0 0 1 578,303.46 L585,323.4483 L589.5,323.4483 A2.5,2.5 0 0 1 592,325.9483 L592,351.4366 A2.5,2.5 0 0 1 589.5,353.9366 L516.5,353.9366 A2.5,2.5 0 0 1 514,351.4366 L514,303.46 A2.5,2.5 0 0 1 516.5,300.96 " fill="#F1F1F1" style="stroke:#181818;stroke-width:0.5;"/><line style="stroke:#181818;stroke-width:0.5;" x1="514" x2="585" y1="323.4483" y2="323.4483"/><text fill="#000000" font-family="sans-serif" font-size="14" font-weight="bold" lengthAdjust="spacing" textLength="58" x="518" y="316.4952">guarded</text><path d="M57,300.96 L123,300.96 A3.75,3.75 0 0 1 125.5,303.46 L132.5,323.4483 L137,323.4483 A2.5,2.5 0 0 1 139.5,325.9483 L139.5,351.4366 A2.5,2.5 0 0 1 137,353.9366 L57,353.9366 A2.5,2.5 0 0 1 54.5,351.4366 L54.5,303.46 A2.5,2.5 0 0 1 57,300.96 " fill="#F1F1F1" style="stroke:#181818;stroke-width:0.5;"/><line style="stroke:#181818;stroke-width:0.5;" x1="54.5" x2="132.5" y1="323.4483" y2="323.4483"/><text fill="#000000" font-family="sans-serif" font-size="14" font-weight="bold" lengthAdjust="spacing" textLength="65" x="58.5" y="316.4952">inhibited</text><path d="M71.5,430.93 L148.5,430.93 A3.75,3.75 0 0 1 151,433.43 L158,453.4183 L162.5,453.4183 A2.5,2.5 0 0 1 165,455.9183 L165,481.4066 A2.5,2.5 0 0 1 162.5,483.9066 L71.5,483.9066 A2.5,2.5 0 0 1 69,481.4066 L69,433.43 A2.5,2.5 0 0 1 71.5,430.93 " fill="#F1F1F1" style="stroke:#181818;stroke-width:0.5;"/><line style="stroke:#181818;stroke-width:0.5;" x1="69" x2="158" y1="453.4183" y2="453.4183"/><text fill="#000000" font-family="sans-serif" font-size="14" font-weight="bold" lengthAdjust="spacing" textLength="76" x="73" y="446.4652">prioritized</text><path d="M267,430.93 L373,430.93 A3.75,3.75 0 0 1 375.5,433.43 L382.5,453.4183 L387,453.4183 A2.5,2.5 0 0 1 389.5,455.9183 L389.5,481.4066 A2.5,2.5 0 0 1 387,483.9066 L267,483.9066 A2.5,2.5 0 0 1 264.5,481.4066 L264.5,433.43 A2.5,2.5 0 0 1 267,430.93 " fill="#F1F1F1" style="stroke:#181818;stroke-width:0.5;"/><line style="stroke:#181818;stroke-width:0.5;" x1="264.5" x2="382.5" y1="453.4183" y2="453.4183"/><text fill="#000000" font-family="sans-serif" font-size="14" font-weight="bold" lengthAdjust="spacing" textLength="105" x="268.5" y="446.4652">contextualized</text><path d="M492.5,430.93 L567.5,430.93 A3.75,3.75 0 0 1 570,433.43 L577,453.4183 L581.5,453.4183 A2.5,2.5 0 0 1 584,455.9183 L584,481.4066 A2.5,2.5 0 0 1 581.5,483.9066 L492.5,483.9066 A2.5,2.5 0 0 1 490,481.4066 L490,433.43 A2.5,2.5 0 0 1 492.5,430.93 " fill="#F1F1F1" style="stroke:#181818;stroke-width:0.5;"/><line style="stroke:#181818;stroke-width:0.5;" x1="490" x2="577" y1="453.4183" y2="453.4183"/><text fill="#000000" font-family="sans-serif" font-size="14" font-weight="bold" lengthAdjust="spacing" textLength="74" x="494" y="446.4652">structured</text><path d="M481.5,41 L524.5,41 A3.75,3.75 0 0 1 527,43.5 L534,63.4883 L538.5,63.4883 A2.5,2.5 0 0 1 541,65.9883 L541,91.4766 A2.5,2.5 0 0 1 538.5,93.9766 L481.5,93.9766 A2.5,2.5 0 0 1 479,91.4766 L479,43.5 A2.5,2.5 0 0 1 481.5,41 " fill="#F1F1F1" style="stroke:#181818;stroke-width:0.5;"/><line style="stroke:#181818;stroke-width:0.5;" x1="479" x2="534" y1="63.4883" y2="63.4883"/><text fill="#000000" font-family="sans-serif" font-size="14" font-weight="bold" lengthAdjust="spacing" textLength="42" x="483" y="56.5352">timed</text><path d="M157.5,41 L234.5,41 A3.75,3.75 0 0 1 237,43.5 L244,63.4883 L248.5,63.4883 A2.5,2.5 0 0 1 251,65.9883 L251,91.4766 A2.5,2.5 0 0 1 248.5,93.9766 L157.5,93.9766 A2.5,2.5 0 0 1 155,91.4766 L155,43.5 A2.5,2.5 0 0 1 157.5,41 " fill="#F1F1F1" style="stroke:#181818;stroke-width:0.5;"/><line style="stroke:#181818;stroke-width:0.5;" x1="155" x2="244" y1="63.4883" y2="63.4883"/><text fill="#000000" font-family="sans-serif" font-size="14" font-weight="bold" lengthAdjust="spacing" textLength="76" x="159" y="56.5352">cardinality</text><!--link game to net--><g id="link_game_net"><path codeLine="12" d="M327,224.37 C327,246.57 327,272.39 327,294.59 " fill="none" id="game-to-net" style="stroke:#181818;stroke-width:1.0;stroke-dasharray:7.0,7.0;"/><polygon fill="#181818" points="327,300.59,331,291.59,327,295.59,323,291.59,327,300.59" style="stroke:#181818;stroke-width:1.0;"/><text fill="#000000" font-family="sans-serif" font-size="13" lengthAdjust="spacing" textLength="64" x="328" y="267.5284">&#171;extends&#187;</text></g><!--reverse link net to guarded--><g id="link_net_guarded"><path codeLine="15" d="M354.67,327.45 C392.68,327.45 465.85,327.45 513.71,327.45 " fill="none" id="net-backto-guarded" style="stroke:#181818;stroke-width:1.0;stroke-dasharray:7.0,7.0;"/><polygon fill="#181818" points="348.67,327.45,357.67,331.45,353.67,327.45,357.67,323.45,348.67,327.45" style="stroke:#181818;stroke-width:1.0;"/><text fill="#000000" font-family="sans-serif" font-size="13" lengthAdjust="spacing" textLength="64" x="399.25" y="321.0184">&#171;extends&#187;</text></g><!--link inhibited to net--><g id="link_inhibited_net"><path codeLine="18" d="M139.99,327.45 C189.01,327.45 261.23,327.45 299.08,327.45 " fill="none" id="inhibited-to-net" style="stroke:#181818;stroke-width:1.0;stroke-dasharray:7.0,7.0;"/><polygon fill="#181818" points="305.08,327.45,296.08,323.45,300.08,327.45,296.08,331.45,305.08,327.45" style="stroke:#181818;stroke-width:1.0;"/><text fill="#000000" font-family="sans-serif" font-size="13" lengthAdjust="spacing" textLength="64" x="190.5" y="321.0184">&#171;extends&#187;</text></g><!--reverse link net to prioritized--><g id="link_net_prioritized"><path codeLine="21" d="M300.0612,344.6972 C272.8512,361.0972 235,383.93 235,383.93 C235,383.93 193.13,409.66 159.27,430.46 " fill="none" id="net-backto-prioritized" style="stroke:#181818;stroke-width:1.0;stroke-dasharray:7.0,7.0;"/><polygon fill="#181818" points="305.2,341.6,295.427,342.82,300.9177,344.181,299.5567,349.6717,305.2,341.6" style="stroke:#181818;stroke-width:1.0;"/><text fill="#000000" font-family="sans-serif" font-size="13" lengthAdjust="spacing" textLength="64" x="236" y="397.4984">&#171;extends&#187;</text></g><!--reverse link net to contextualized--><g id="link_net_contextualized"><path codeLine="24" d="M326.4282,360.239 C326.1582,374.729 326,383.93 326,383.93 C326,383.93 326,400.93 326,400.93 C326,400.93 326.27,416.14 326.54,430.63 " fill="none" id="net-backto-contextualized" style="stroke:#181818;stroke-width:1.0;stroke-dasharray:7.0,7.0;"/><polygon fill="#181818" points="326.54,354.24,322.373,363.1639,326.4468,359.2391,330.3716,363.313,326.54,354.24" style="stroke:#181818;stroke-width:1.0;"/><text fill="#000000" font-family="sans-serif" font-size="13" lengthAdjust="spacing" textLength="64" x="327" y="397.4984">&#171;extends&#187;</text></g><!--reverse link net to structured--><g id="link_net_structured"><path codeLine="27" d="M353.8039,344.7819 C388.0739,365.6619 450.26,403.56 494.43,430.48 " fill="none" id="net-backto-structured" style="stroke:#181818;stroke-width:1.0;stroke-dasharray:7.0,7.0;"/><polygon fill="#181818" points="348.68,341.66,354.2846,349.7587,352.9499,344.2616,358.447,342.9269,348.68,341.66" style="stroke:#181818;stroke-width:1.0;"/><text fill="#000000" font-family="sans-serif" font-size="13" lengthAdjust="spacing" textLength="64" x="445" y="397.4984">&#171;extends&#187;</text></g><!--link timed to net--><g id="link_timed_net"><path codeLine="30" d="M514.65,94.29 C517.26,108.78 520,123.98 520,123.98 C520,123.98 520,140.98 520,140.98 C520,140.98 418,270.96 418,270.96 C418,270.96 380.6027,293.7662 353.6927,310.1762 " fill="none" id="timed-to-net" style="stroke:#181818;stroke-width:1.0;stroke-dasharray:7.0,7.0;"/><polygon fill="#181818" points="348.57,313.3,358.3365,312.0293,352.8389,310.6968,354.1714,305.1991,348.57,313.3" style="stroke:#181818;stroke-width:1.0;"/><text fill="#000000" font-family="sans-serif" font-size="13" lengthAdjust="spacing" textLength="64" x="496" y="202.5384">&#171;extends&#187;</text></g><!--link timed to game--><g id="link_timed_game"><path codeLine="31" d="M478.54,90.49 C444.41,114.36 395.2372,148.7518 361.7572,172.1618 " fill="none" id="timed-to-game" style="stroke:#181818;stroke-width:1.0;stroke-dasharray:7.0,7.0;"/><polygon fill="#181818" points="356.84,175.6,366.5079,173.7208,360.9377,172.7348,361.9236,167.1646,356.84,175.6" style="stroke:#181818;stroke-width:1.0;"/><text fill="#000000" font-family="sans-serif" font-size="13" lengthAdjust="spacing" textLength="64" x="430" y="137.5484">&#171;extends&#187;</text></g><!--link cardinality to net--><g id="link_cardinality_net"><path codeLine="34" d="M197.7,94.35 C191.48,124.72 182,170.98 182,170.98 C182,170.98 182,223.96 182,223.96 C182,223.96 259.9403,279.0469 300.3903,307.6369 " fill="none" id="cardinality-to-net" style="stroke:#181818;stroke-width:1.0;stroke-dasharray:7.0,7.0;"/><polygon fill="#181818" points="305.29,311.1,300.2492,302.6389,301.2069,308.2141,295.6317,309.1718,305.29,311.1" style="stroke:#181818;stroke-width:1.0;"/><text fill="#000000" font-family="sans-serif" font-size="13" lengthAdjust="spacing" textLength="64" x="183" y="202.5384">&#171;extends&#187;</text></g><!--link cardinality to game--><g id="link_cardinality_game"><path codeLine="35" d="M228.09,94.39 C249.61,116.59 276.2649,144.1109 297.7649,166.3009 " fill="none" id="cardinality-to-game" style="stroke:#181818;stroke-width:1.0;stroke-dasharray:7.0,7.0;"/><polygon fill="#181818" points="301.94,170.61,298.5501,161.3629,298.4607,167.0191,292.8046,166.9297,301.94,170.61" style="stroke:#181818;stroke-width:1.0;"/><text fill="#000000" font-family="sans-serif" font-size="13" lengthAdjust="spacing" textLength="64" x="273" y="137.5484">&#171;extends&#187;</text></g><!--SRC=[ZL99RiCm3Bph5Ng1aLwBm9U-HBPOcuWsK1HGDyZVGpTrBAUBeuCWpd168aRvX24PCbvtfZyD54kmRz55qamcPA4WiChthioJ0za9UoxULOp303mbq2cwQIugBaGB6P9-EHoK6j62xf5w1xSp-CIJzk0xeAnKaeUOGNnO3BK-Aorh0MVeVDb0W_6mO5_dfcddlbTzFC87Gx2vRTLMKWnPi7VLTzauUETTCOOHE-HLlW8DuJ3kEoJ2ICZukNhKK5FIhaKV0mjLZAjT7j1dZ2JA8b7IQb8XpnWm-bLxAtuDO4lFGVqtdWI2GSQGZx7CLa5_Nl3OzFEQonK0]--></g></svg>