<?xml version="1.0" encoding="us-ascii" standalone="no"?><svg xmlns="http://www.w3.org/2000/svg" xmlns:xlink="http://www.w3.org/1999/xlink" contentStyleType="text/css" height="360px" preserveAspectRatio="none" style="width:455px;height:360px;" version="1.1" viewBox="0 0 455 360" width="455px" zoomAndPan="magnify"><defs/><g><!--cluster pnet--><g id="cluster_pnet"><polygon fill="none" points="16,6,54,6,61,28.4883,438,28.4883,438,353.46,16,353.46,16,6" style="stroke:#000000;stroke-width:1.5;"/><line style="stroke:#000000;stroke-width:1.5;" x1="16" x2="61" y1="28.4883" y2="28.4883"/><text fill="#000000" font-family="sans-serif" font-size="14" font-weight="bold" lengthAdjust="spacing" textLength="32" x="20" y="21.5352">pnet</text></g><!--cluster net--><g id="cluster_net"><polygon fill="none" points="115,49,144,49,151,71.4883,317,71.4883,317,126.48,115,126.48,115,49" style="stroke:#000000;stroke-width:1.5;"/><line style="stroke:#000000;stroke-width:1.5;" x1="115" x2="151" y1="71.4883" y2="71.4883"/><text fill="#000000" font-family="sans-serif" font-size="14" font-weight="bold" lengthAdjust="spacing" textLength="23" x="119" y="64.5352">net</text></g><!--cluster sim--><g id="cluster_sim"><polygon fill="none" points="169,251.97,202,251.97,209,274.4583,257,274.4583,257,329.46,169,329.46,169,251.97" style="stroke:#000000;stroke-width:1.5;"/><line style="stroke:#000000;stroke-width:1.5;" x1="169" x2="209" y1="274.4583" y2="274.4583"/><text fill="#000000" font-family="sans-serif" font-size="14" font-weight="bold" lengthAdjust="spacing" textLength="27" x="173" y="267.5052">sim</text></g><!--cluster cardinality--><g id="cluster_cardinality"><polygon fill="none" points="40,150.48,122,150.48,129,172.9683,414,172.9683,414,227.97,40,227.97,40,150.48" style="stroke:#000000;stroke-width:1.5;"/><line style="stroke:#000000;stroke-width:1.5;" x1="40" x2="129" y1="172.9683" y2="172.9683"/><text fill="#000000" font-family="sans-serif" font-size="14" font-weight="bold" lengthAdjust="spacing" textLength="76" x="44" y="166.0152">cardinality</text></g><!--class Arc--><g id="elem_Arc"><rect codeLine="10" fill="#F1F1F1" height="26.4883" id="Arc" rx="2.5" ry="2.5" style="stroke:#181818;stroke-width:0.5;" width="29" x="131.5" y="84"/><text fill="#000000" font-family="sans-serif" font-size="14" font-style="italic" lengthAdjust="spacing" textLength="23" x="134.5" y="102.5352">Arc</text></g><!--class Place--><g id="elem_Place"><rect codeLine="11" fill="#F1F1F1" height="26.4883" id="Place" rx="2.5" ry="2.5" style="stroke:#181818;stroke-width:0.5;" width="41" x="260.5" y="84"/><text fill="#000000" font-family="sans-serif" font-size="14" font-style="italic" lengthAdjust="spacing" textLength="35" x="263.5" y="102.5352">Place</text></g><!--class Tokens--><g id="elem_Tokens"><rect codeLine="14" fill="#F1F1F1" height="26.4883" id="Tokens" rx="2.5" ry="2.5" style="stroke:#181818;stroke-width:0.5;" width="56" x="185" y="286.97"/><text fill="#000000" font-family="sans-serif" font-size="14" font-style="italic" lengthAdjust="spacing" textLength="50" x="188" y="305.5052">Tokens</text></g><!--class WeightedArc--><g id="elem_WeightedArc"><rect codeLine="17" fill="#F1F1F1" height="26.4883" id="WeightedArc" rx="2.5" ry="2.5" style="stroke:#181818;stroke-width:0.5;" width="93" x="56.5" y="185.48"/><text fill="#000000" font-family="sans-serif" font-size="14" font-style="italic" lengthAdjust="spacing" textLength="87" x="59.5" y="204.0152">WeightedArc</text></g><!--class CapacityLimitedPlace--><g id="elem_CapacityLimitedPlace"><rect codeLine="21" fill="#F1F1F1" height="26.4883" id="CapacityLimitedPlace" rx="2.5" ry="2.5" style="stroke:#181818;stroke-width:0.5;" width="149" x="249.5" y="185.48"/><text fill="#000000" font-family="sans-serif" font-size="14" font-style="italic" lengthAdjust="spacing" textLength="143" x="252.5" y="204.0152">CapacityLimitedPlace</text></g><!--reverse link Arc to WeightedArc--><g id="link_Arc_WeightedArc"><path codeLine="18" d="M133.4105,127.3636 C125.1405,146.5036 116.65,166.15 108.4,185.23 " fill="none" id="Arc-backto-WeightedArc" style="stroke:#181818;stroke-width:1.0;"/><polygon fill="none" points="140.55,110.84,127.9027,124.9837,138.9184,129.7434,140.55,110.84" style="stroke:#181818;stroke-width:1.0;"/></g><!--link WeightedArc to Tokens--><g id="link_WeightedArc_Tokens"><path codeLine="19" d="M125.8315,220.3775 C146.9915,239.5075 173.6406,263.6147 194.7306,282.6947 " fill="none" id="WeightedArc-Tokens" style="stroke:#181818;stroke-width:1.0;"/><polygon fill="none" points="116.93,212.33,118.6982,219.3209,125.8315,220.3775,124.0633,213.3866,116.93,212.33" style="stroke:#181818;stroke-width:1.0;"/><polygon fill="#181818" points="199.18,286.72,195.1895,277.7158,195.4722,283.3656,189.8224,283.6483,199.18,286.72" style="stroke:#181818;stroke-width:1.0;"/><text fill="#000000" font-family="sans-serif" font-size="13" lengthAdjust="spacing" textLength="76" x="103.4236" y="276.3435">+cardinality</text></g><!--reverse link Place to CapacityLimitedPlace--><g id="link_Place_CapacityLimitedPlace"><path codeLine="22" d="M293.5895,127.3636 C301.8595,146.5036 310.35,166.15 318.6,185.23 " fill="none" id="Place-backto-CapacityLimitedPlace" style="stroke:#181818;stroke-width:1.0;"/><polygon fill="none" points="286.45,110.84,288.0816,129.7434,299.0973,124.9837,286.45,110.84" style="stroke:#181818;stroke-width:1.0;"/></g><!--link CapacityLimitedPlace to Tokens--><g id="link_CapacityLimitedPlace_Tokens"><path codeLine="23" d="M301.0028,220.3379 C279.6528,239.4679 252.6982,263.6356 231.4082,282.7156 " fill="none" id="CapacityLimitedPlace-Tokens" style="stroke:#181818;stroke-width:1.0;"/><polygon fill="none" points="309.94,212.33,302.8021,213.3549,301.0028,220.3379,308.1407,219.313,309.94,212.33" style="stroke:#181818;stroke-width:1.0;"/><polygon fill="#181818" points="226.94,286.72,236.3119,283.6922,230.6635,283.383,230.9727,277.7346,226.94,286.72" style="stroke:#181818;stroke-width:1.0;"/><text fill="#000000" font-family="sans-serif" font-size="13" lengthAdjust="spacing" textLength="76" x="246.7421" y="276.3435">+cardinality</text></g><!--SRC=[VL3BQWCn3BpxAqIkPI7zWK39jOSU2ZqhjheHwnUozx2a- -zLqYPnmAqE0iz8CsELYMD6mG07jDCeQOvkdtmIg8AnA4MncdARAdNnf5tOrZduXl4SgIwP82U_d1yD5vEZGXcUjrjZZkm8AEIwGA1m82d6P3N7KNTL0qu6jAxG7JaNnqhoYPRWHMm7VVFQB_Zwe58uT5NUqqInT1OiYkE8dZLcR_63U3nMSXe3Jkjje8M7EGzVkuUWBPs6OGURfyPeSutJyTkZ9jEPLmwi0fT_jiPT_ZV1_IX_JluJvkSswpS0]--></g></svg>