<?xml version="1.0" encoding="us-ascii" standalone="no"?><svg xmlns="http://www.w3.org/2000/svg" xmlns:xlink="http://www.w3.org/1999/xlink" contentStyleType="text/css" height="474px" preserveAspectRatio="none" style="width:531px;height:474px;" version="1.1" viewBox="0 0 531 474" width="531px" zoomAndPan="magnify"><defs/><g><!--cluster pnet--><g id="cluster_pnet"><polygon fill="none" points="16,6,54,6,61,28.4883,514,28.4883,514,467.91,16,467.91,16,6" style="stroke:#000000;stroke-width:1.5;"/><line style="stroke:#000000;stroke-width:1.5;" x1="16" x2="61" y1="28.4883" y2="28.4883"/><text fill="#000000" font-family="sans-serif" font-size="14" font-weight="bold" lengthAdjust="spacing" textLength="32" x="20" y="21.5352">pnet</text></g><!--cluster net--><g id="cluster_net"><polygon fill="none" points="40,49,69,49,76,71.4883,490,71.4883,490,381.42,40,381.42,40,49" style="stroke:#000000;stroke-width:1.5;"/><line style="stroke:#000000;stroke-width:1.5;" x1="40" x2="76" y1="71.4883" y2="71.4883"/><text fill="#000000" font-family="sans-serif" font-size="14" font-weight="bold" lengthAdjust="spacing" textLength="23" x="44" y="64.5352">net</text></g><!--class HasIdentity--><g id="elem_HasIdentity"><rect codeLine="9" fill="#F1F1F1" height="26.4883" id="HasIdentity" rx="2.5" ry="2.5" style="stroke:#181818;stroke-width:0.5;" width="82" x="34" y="425.42"/><text fill="#000000" font-family="sans-serif" font-size="14" font-style="italic" lengthAdjust="spacing" textLength="76" x="37" y="443.9552">HasIdentity</text></g><!--class HasLabel--><g id="elem_HasLabel"><rect codeLine="10" fill="#F1F1F1" height="26.4883" id="HasLabel" rx="2.5" ry="2.5" style="stroke:#181818;stroke-width:0.5;" width="67" x="216.5" y="425.42"/><text fill="#000000" font-family="sans-serif" font-size="14" font-style="italic" lengthAdjust="spacing" textLength="61" x="219.5" y="443.9552">HasLabel</text></g><!--class Node--><g id="elem_Node"><rect codeLine="12" fill="#F1F1F1" height="26.4883" id="Node" rx="2.5" ry="2.5" style="stroke:#181818;stroke-width:0.5;" width="42" x="142" y="338.93"/><text fill="#000000" font-family="sans-serif" font-size="14" font-style="italic" lengthAdjust="spacing" textLength="36" x="145" y="357.4652">Node</text></g><!--class Place--><g id="elem_Place"><rect codeLine="16" fill="#F1F1F1" height="26.4883" id="Place" rx="2.5" ry="2.5" style="stroke:#181818;stroke-width:0.5;" width="41" x="55.5" y="231.96"/><text fill="#000000" font-family="sans-serif" font-size="14" font-style="italic" lengthAdjust="spacing" textLength="35" x="58.5" y="250.4952">Place</text></g><!--class Arc--><g id="elem_Arc"><rect codeLine="19" fill="#F1F1F1" height="67.4648" id="Arc" rx="2.5" ry="2.5" style="stroke:#181818;stroke-width:0.5;" width="102" x="196" y="211.47"/><text fill="#000000" font-family="sans-serif" font-size="14" font-style="italic" lengthAdjust="spacing" textLength="23" x="235.5" y="230.0052">Arc</text><line style="stroke:#181818;stroke-width:0.5;" x1="197" x2="297" y1="237.9583" y2="237.9583"/><text fill="#000000" font-family="sans-serif" font-size="14" lengthAdjust="spacing" textLength="90" x="202" y="255.4934">source: Node</text><text fill="#000000" font-family="sans-serif" font-size="14" lengthAdjust="spacing" textLength="85" x="202" y="271.9817">target: Node</text></g><!--class Transition--><g id="elem_Transition"><rect codeLine="24" fill="#F1F1F1" height="26.4883" id="Transition" rx="2.5" ry="2.5" style="stroke:#181818;stroke-width:0.5;" width="76" x="398" y="231.96"/><text fill="#000000" font-family="sans-serif" font-size="14" font-style="italic" lengthAdjust="spacing" textLength="70" x="401" y="250.4952">Transition</text></g><!--class Net--><g id="elem_Net"><rect codeLine="27" fill="#F1F1F1" height="67.4648" id="Net" rx="2.5" ry="2.5" style="stroke:#181818;stroke-width:0.5;" width="245" x="124.5" y="84"/><text fill="#000000" font-family="sans-serif" font-size="14" font-style="italic" lengthAdjust="spacing" textLength="23" x="235.5" y="102.5352">Net</text><line style="stroke:#181818;stroke-width:0.5;" x1="125.5" x2="368.5" y1="110.4883" y2="110.4883"/><ellipse cx="135.5" cy="124.2324" fill="#84BE84" rx="3" ry="3" style="stroke:#038048;stroke-width:1.0;"/><text fill="#000000" font-family="sans-serif" font-size="14" lengthAdjust="spacing" textLength="212" x="144.5" y="128.0234">preset(Transition): Vec&lt;Place&gt;</text><ellipse cx="135.5" cy="140.7207" fill="#84BE84" rx="3" ry="3" style="stroke:#038048;stroke-width:1.0;"/><text fill="#000000" font-family="sans-serif" font-size="14" lengthAdjust="spacing" textLength="219" x="144.5" y="144.5117">postset(Transition): Vec&lt;Place&gt;</text></g><!--link Node to HasIdentity--><g id="link_Node_HasIdentity"><path codeLine="13" d="M150.02,365.64 C133.38,381.62 117.6825,396.6818 101.0225,412.6818 " fill="none" id="Node-to-HasIdentity" style="stroke:#181818;stroke-width:1.0;"/><polygon fill="none" points="88.04,425.15,105.1785,417.0093,96.8664,408.3543,88.04,425.15" style="stroke:#181818;stroke-width:1.0;"/></g><!--link Node to HasLabel--><g id="link_Node_HasLabel"><path codeLine="14" d="M175.84,365.64 C192.29,381.62 207.7292,396.6076 224.1992,412.6076 " fill="none" id="Node-to-HasLabel" style="stroke:#181818;stroke-width:1.0;"/><polygon fill="none" points="237.11,425.15,228.38,408.304,220.0184,416.9112,237.11,425.15" style="stroke:#181818;stroke-width:1.0;"/></g><!--link Place to Node--><g id="link_Place_Node"><path codeLine="17" d="M86.32,258.66 C103.07,278.86 124.4752,304.69 141.2052,324.88 " fill="none" id="Place-to-Node" style="stroke:#181818;stroke-width:1.0;"/><polygon fill="none" points="152.69,338.74,145.8252,321.0517,136.5852,328.7083,152.69,338.74" style="stroke:#181818;stroke-width:1.0;"/></g><!--link Transition to Node--><g id="link_Transition_Node"><path codeLine="25" d="M403.07,258.86 C346.34,280.68 248.531,318.2903 201.091,336.5303 " fill="none" id="Transition-to-Node" style="stroke:#181818;stroke-width:1.0;"/><polygon fill="none" points="184.29,342.99,203.2442,342.1306,198.9377,330.93,184.29,342.99" style="stroke:#181818;stroke-width:1.0;"/></g><!--link Net to Place--><g id="link_Net_Place"><path codeLine="31" d="M192.3956,158.7997 C156.7756,184.9397 123.4276,209.4007 98.1576,227.9407 " fill="none" id="Net-Place" style="stroke:#181818;stroke-width:1.0;"/><polygon fill="#181818" points="202.07,151.7,194.8662,152.025,192.3956,158.7997,199.5993,158.4746,202.07,151.7" style="stroke:#181818;stroke-width:1.0;"/><polygon fill="#181818" points="93.32,231.49,102.9426,229.3912,97.3514,228.5323,98.2103,222.941,93.32,231.49" style="stroke:#181818;stroke-width:1.0;"/><text fill="#000000" font-family="sans-serif" font-size="13" lengthAdjust="spacing" textLength="8" x="185.0485" y="171.9426">1</text><text fill="#000000" font-family="sans-serif" font-size="13" lengthAdjust="spacing" textLength="6" x="92.6005" y="221.2929">*</text></g><!--link Net to Transition--><g id="link_Net_Transition"><path codeLine="32" d="M306.6571,158.3376 C346.0271,184.4776 383.9206,209.6325 411.8606,228.1725 " fill="none" id="Net-Transition" style="stroke:#181818;stroke-width:1.0;"/><polygon fill="#181818" points="296.66,151.7,299.446,158.3512,306.6571,158.3376,303.8711,151.6865,296.66,151.7" style="stroke:#181818;stroke-width:1.0;"/><polygon fill="#181818" points="416.86,231.49,411.5725,223.1808,412.6938,228.7255,407.1492,229.8468,416.86,231.49" style="stroke:#181818;stroke-width:1.0;"/><text fill="#000000" font-family="sans-serif" font-size="13" lengthAdjust="spacing" textLength="8" x="297.0786" y="171.9426">1</text><text fill="#000000" font-family="sans-serif" font-size="13" lengthAdjust="spacing" textLength="6" x="402.6959" y="221.2929">*</text></g><!--link Net to Arc--><g id="link_Net_Arc"><path codeLine="33" d="M247,163.7 C247,182 247,186.69 247,205.02 " fill="none" id="Net-Arc" style="stroke:#181818;stroke-width:1.0;"/><polygon fill="#181818" points="247,151.7,243,157.7,247,163.7,251,157.7,247,151.7" style="stroke:#181818;stroke-width:1.0;"/><polygon fill="#181818" points="247,211.02,251,202.02,247,206.02,243,202.02,247,211.02" style="stroke:#181818;stroke-width:1.0;"/><text fill="#000000" font-family="sans-serif" font-size="13" lengthAdjust="spacing" textLength="8" x="238.2625" y="171.9426">1</text><text fill="#000000" font-family="sans-serif" font-size="13" lengthAdjust="spacing" textLength="6" x="240.4281" y="200.6722">*</text></g><!--SRC=[ZL71QiCm3BtxAqHEMqUWlPOH6BjiC4eFOtV7qJ9JnpQsGWbT_drsmXAtJTbq45ZlwJrPyWUfBNUyWPABG-rCgwjdeum3Sbpx0A4cvYUMfqvXo4uAQXkL84fgfCuYMAEw-4WmRIhqQ66pNZFs9Ii4R2nrq61JelECsM3Ewz0RDE3488JKXEwJ2uGNxb-hC8QaxXfvuoMgeVohCKkSatTX23Zr4pAyyyeSTVvTN9aiCaQp1UszYZaH7mjJRrHQwdjo8farXZUj4xWTErA0kAkHBe1-IVGzNawID3gTAAd-ETRkR8Kn7gmB5wIxMUL-2nye7eUF5XTSu-a_vEGMmJ3RPB3AymAoLJRkxpOyAz_cXDsoqQN_0G00]--></g></svg>