<?xml version="1.0" encoding="UTF-8" standalone="no"?>
<!DOCTYPE svg PUBLIC "-//W3C//DTD SVG 1.1//EN"
 "http://www.w3.org/Graphics/SVG/1.1/DTD/svg11.dtd">
<!-- Generated by graphviz version 9.0.0 (20230911.1827)
 -->
<!-- Pages: 1 -->
<svg width="511pt" height="151pt"
 viewBox="0.00 0.00 511.10 150.50" xmlns="http://www.w3.org/2000/svg" xmlns:xlink="http://www.w3.org/1999/xlink">
<g id="net0" class="graph" transform="scale(1 1) rotate(0) translate(4 146.5)">
<!-- x1 -->
<g id="net0_node1" class="node">
<title>x1</title>
<ellipse fill="none" stroke="black" cx="182.7" cy="-124.5" rx="18" ry="18"/>
<text text-anchor="middle" x="182.7" y="-119.45" font-family="Times,serif" font-size="14.00">●</text>
<text text-anchor="middle" x="157.95" y="-93.2" font-family="Times,serif" font-size="14.00">x1</text>
</g>
<!-- xt1 -->
<g id="net0_node8" class="node">
<title>xt1</title>
<polygon fill="lightgreen" stroke="darkgreen" points="261.9,-142.5 254.7,-142.5 254.7,-106.5 261.9,-106.5 261.9,-142.5"/>
<text text-anchor="middle" x="246.08" y="-93.2" font-family="Times,serif" font-size="14.00">xt1</text>
</g>
<!-- x1&#45;&gt;xt1 -->
<g id="net0_edge1" class="edge">
<title>x1&#45;&gt;xt1</title>
<path fill="none" stroke="black" d="M201.14,-124.5C213.96,-124.5 231.15,-124.5 243.12,-124.5"/>
<polygon fill="black" stroke="black" points="242.98,-128 252.98,-124.5 242.98,-121 242.98,-128"/>
</g>
<!-- x2 -->
<g id="net0_node2" class="node">
<title>x2</title>
<ellipse fill="none" stroke="darkgrey" cx="333.9" cy="-124.5" rx="18" ry="18"/>
<text text-anchor="middle" x="309.15" y="-93.2" font-family="Times,serif" font-size="14.00">x2</text>
</g>
<!-- xyt1 -->
<g id="net0_node11" class="node">
<title>xyt1</title>
<polygon fill="lightgrey" stroke="darkgrey" points="413.1,-97.5 405.9,-97.5 405.9,-61.5 413.1,-61.5 413.1,-97.5"/>
<text text-anchor="middle" x="393.9" y="-48.2" font-family="Times,serif" font-size="14.00">xyt1</text>
</g>
<!-- x2&#45;&gt;xyt1 -->
<g id="net0_edge3" class="edge">
<title>x2&#45;&gt;xyt1</title>
<path fill="none" stroke="black" d="M349.79,-115.39C363.29,-107.14 382.97,-95.11 395.75,-87.29"/>
<polygon fill="black" stroke="black" points="397.47,-90.34 404.18,-82.14 393.82,-84.37 397.47,-90.34"/>
</g>
<!-- x3 -->
<g id="net0_node3" class="node">
<title>x3</title>
<ellipse fill="none" stroke="darkgrey" cx="485.1" cy="-124.5" rx="18" ry="18"/>
<text text-anchor="middle" x="460.35" y="-93.2" font-family="Times,serif" font-size="14.00">x3</text>
</g>
<!-- y1 -->
<g id="net0_node4" class="node">
<title>y1</title>
<ellipse fill="none" stroke="black" cx="31.5" cy="-34.5" rx="18" ry="18"/>
<text text-anchor="middle" x="31.5" y="-29.45" font-family="Times,serif" font-size="14.00">●</text>
<text text-anchor="middle" x="6.75" y="-3.2" font-family="Times,serif" font-size="14.00">y1</text>
</g>
<!-- yt1 -->
<g id="net0_node9" class="node">
<title>yt1</title>
<polygon fill="lightgreen" stroke="darkgreen" points="110.7,-52.5 103.5,-52.5 103.5,-16.5 110.7,-16.5 110.7,-52.5"/>
<text text-anchor="middle" x="94.88" y="-3.2" font-family="Times,serif" font-size="14.00">yt2</text>
</g>
<!-- y1&#45;&gt;yt1 -->
<g id="net0_edge5" class="edge">
<title>y1&#45;&gt;yt1</title>
<path fill="none" stroke="black" d="M49.94,-34.5C62.76,-34.5 79.95,-34.5 91.92,-34.5"/>
<polygon fill="black" stroke="black" points="91.78,-38 101.78,-34.5 91.78,-31 91.78,-38"/>
</g>
<!-- y2 -->
<g id="net0_node5" class="node">
<title>y2</title>
<ellipse fill="none" stroke="darkgrey" cx="182.7" cy="-34.5" rx="18" ry="18"/>
<text text-anchor="middle" x="157.95" y="-3.2" font-family="Times,serif" font-size="14.00">y2</text>
</g>
<!-- yt2 -->
<g id="net0_node10" class="node">
<title>yt2</title>
<polygon fill="lightgrey" stroke="darkgrey" points="261.9,-52.5 254.7,-52.5 254.7,-16.5 261.9,-16.5 261.9,-52.5"/>
<text text-anchor="middle" x="246.08" y="-3.2" font-family="Times,serif" font-size="14.00">yt3</text>
</g>
<!-- y2&#45;&gt;yt2 -->
<g id="net0_edge7" class="edge">
<title>y2&#45;&gt;yt2</title>
<path fill="none" stroke="black" d="M201.14,-34.5C213.96,-34.5 231.15,-34.5 243.12,-34.5"/>
<polygon fill="black" stroke="black" points="242.98,-38 252.98,-34.5 242.98,-31 242.98,-38"/>
</g>
<!-- y3 -->
<g id="net0_node6" class="node">
<title>y3</title>
<ellipse fill="none" stroke="darkgrey" cx="333.9" cy="-34.5" rx="18" ry="18"/>
<text text-anchor="middle" x="309.15" y="-3.2" font-family="Times,serif" font-size="14.00">y3</text>
</g>
<!-- y3&#45;&gt;xyt1 -->
<g id="net0_edge9" class="edge">
<title>y3&#45;&gt;xyt1</title>
<path fill="none" stroke="black" d="M349.79,-43.61C363.29,-51.86 382.97,-63.89 395.75,-71.71"/>
<polygon fill="black" stroke="black" points="393.82,-74.63 404.18,-76.86 397.47,-68.66 393.82,-74.63"/>
</g>
<!-- y4 -->
<g id="net0_node7" class="node">
<title>y4</title>
<ellipse fill="none" stroke="darkgrey" cx="485.1" cy="-34.5" rx="18" ry="18"/>
<text text-anchor="middle" x="460.35" y="-3.2" font-family="Times,serif" font-size="14.00">y4</text>
</g>
<!-- xt1&#45;&gt;x2 -->
<g id="net0_edge2" class="edge">
<title>xt1&#45;&gt;x2</title>
<path fill="none" stroke="black" d="M262.1,-124.5C269.07,-124.5 287.85,-124.5 304.32,-124.5"/>
<polygon fill="black" stroke="black" points="304.19,-128 314.19,-124.5 304.19,-121 304.19,-128"/>
</g>
<!-- yt1&#45;&gt;y2 -->
<g id="net0_edge6" class="edge">
<title>yt1&#45;&gt;y2</title>
<path fill="none" stroke="black" d="M110.9,-34.5C117.87,-34.5 136.65,-34.5 153.12,-34.5"/>
<polygon fill="black" stroke="black" points="152.99,-38 162.99,-34.5 152.99,-31 152.99,-38"/>
</g>
<!-- yt2&#45;&gt;y3 -->
<g id="net0_edge8" class="edge">
<title>yt2&#45;&gt;y3</title>
<path fill="none" stroke="black" d="M262.1,-34.5C269.07,-34.5 287.85,-34.5 304.32,-34.5"/>
<polygon fill="black" stroke="black" points="304.19,-38 314.19,-34.5 304.19,-31 304.19,-38"/>
</g>
<!-- xyt1&#45;&gt;x3 -->
<g id="net0_edge4" class="edge">
<title>xyt1&#45;&gt;x3</title>
<path fill="none" stroke="black" d="M413.3,-81.21C420.85,-85.83 442.25,-98.91 459.56,-109.5"/>
<polygon fill="black" stroke="black" points="457.5,-112.34 467.86,-114.57 461.15,-106.37 457.5,-112.34"/>
</g>
<!-- xyt1&#45;&gt;y4 -->
<g id="net0_edge10" class="edge">
<title>xyt1&#45;&gt;y4</title>
<path fill="none" stroke="black" d="M413.3,-77.79C420.85,-73.17 442.25,-60.09 459.56,-49.5"/>
<polygon fill="black" stroke="black" points="461.15,-52.63 467.86,-44.43 457.5,-46.66 461.15,-52.63"/>
</g>
</g>
</svg>
