<?xml version="1.0" encoding="UTF-8" standalone="no"?>
<!DOCTYPE svg PUBLIC "-//W3C//DTD SVG 1.1//EN"
 "http://www.w3.org/Graphics/SVG/1.1/DTD/svg11.dtd">
<!-- Generated by graphviz version 9.0.0 (20230911.1827)
 -->
<!-- Pages: 1 -->
<svg width="227pt" height="61pt"
 viewBox="0.00 0.00 226.95 60.50" xmlns="http://www.w3.org/2000/svg" xmlns:xlink="http://www.w3.org/1999/xlink">
<g id="graph0" class="graph" transform="scale(1 1) rotate(0) translate(4 56.5)">
<!-- p1 -->
<g id="node1" class="node">
<title>p1</title>
<ellipse fill="none" stroke="black" cx="42" cy="-34.5" rx="18" ry="18"/>
<text text-anchor="middle" x="42" y="-29.45" font-family="Times,serif" font-size="14.00">â—</text>
<text text-anchor="start" x="0" y="-4.2" font-family="Times,serif" font-size="14.00">p1</text>
<text text-anchor="start" x="13.5" y="-4.2" font-family="Times,serif" baseline-shift="super" font-size="10.00">[2]</text>
</g>
<!-- t1 -->
<g id="node3" class="node">
<title>t1</title>
<polygon fill="lightgrey" stroke="darkgrey" points="127.95,-52.5 120.75,-52.5 120.75,-16.5 127.95,-16.5 127.95,-52.5"/>
<text text-anchor="middle" x="115.5" y="-3.2" font-family="Times,serif" font-size="14.00">t1</text>
</g>
<!-- p1&#45;&gt;t1 -->
<g id="edge1" class="edge">
<title>p1&#45;&gt;t1</title>
<path fill="none" stroke="black" d="M60.43,-34.5C74.94,-34.5 95.35,-34.5 108.94,-34.5"/>
<polygon fill="black" stroke="black" points="108.91,-38 118.91,-34.5 108.91,-31 108.91,-38"/>
<text text-anchor="middle" x="90.38" y="-37.7" font-family="Times,serif" font-size="14.00">2</text>
</g>
<!-- p2 -->
<g id="node2" class="node">
<title>p2</title>
<ellipse fill="none" stroke="darkgrey" cx="200.95" cy="-34.5" rx="18" ry="18"/>
<text text-anchor="middle" x="176.2" y="-3.2" font-family="Times,serif" font-size="14.00">p2</text>
</g>
<!-- t1&#45;&gt;p2 -->
<g id="edge2" class="edge">
<title>t1&#45;&gt;p2</title>
<path fill="none" stroke="black" d="M128.18,-34.5C135.32,-34.5 154.66,-34.5 171.47,-34.5"/>
<polygon fill="black" stroke="black" points="171.01,-38 181.01,-34.5 171.01,-31 171.01,-38"/>
</g>
</g>
</svg>
