<?xml version="1.0" encoding="UTF-8" standalone="no"?>
<!DOCTYPE svg PUBLIC "-//W3C//DTD SVG 1.1//EN"
 "http://www.w3.org/Graphics/SVG/1.1/DTD/svg11.dtd">
<!-- Generated by graphviz version 9.0.0 (20230911.1827)
 -->
<!-- Pages: 1 -->
<svg width="216pt" height="61pt"
 viewBox="0.00 0.00 216.45 60.50" xmlns="http://www.w3.org/2000/svg" xmlns:xlink="http://www.w3.org/1999/xlink">
<g id="graph0" class="graph" transform="scale(1 1) rotate(0) translate(4 56.5)">
<!-- p1 -->
<g id="node1" class="node">
<title>p1</title>
<ellipse fill="none" stroke="black" cx="31.5" cy="-34.5" rx="18" ry="18"/>
<text text-anchor="middle" x="31.5" y="-29.45" font-family="Times,serif" font-size="14.00">â—</text>
<text text-anchor="middle" x="6.75" y="-3.2" font-family="Times,serif" font-size="14.00">p1</text>
</g>
<!-- t1 -->
<g id="node3" class="node">
<title>t1</title>
<polygon fill="lightgrey" stroke="darkgrey" points="117.45,-52.5 110.25,-52.5 110.25,-16.5 117.45,-16.5 117.45,-52.5"/>
<text text-anchor="middle" x="105" y="-3.2" font-family="Times,serif" font-size="14.00">t1</text>
</g>
<!-- p1&#45;&gt;t1 -->
<g id="edge1" class="edge">
<title>p1&#45;&gt;t1</title>
<path fill="none" stroke="black" d="M49.93,-34.5C64.44,-34.5 84.85,-34.5 98.44,-34.5"/>
<polygon fill="black" stroke="black" points="98.41,-38 108.41,-34.5 98.41,-31 98.41,-38"/>
<text text-anchor="middle" x="79.88" y="-37.7" font-family="Times,serif" font-size="14.00">2</text>
</g>
<!-- p2 -->
<g id="node2" class="node">
<title>p2</title>
<ellipse fill="none" stroke="darkgrey" cx="190.45" cy="-34.5" rx="18" ry="18"/>
<text text-anchor="middle" x="165.7" y="-3.2" font-family="Times,serif" font-size="14.00">p2</text>
</g>
<!-- t1&#45;&gt;p2 -->
<g id="edge2" class="edge">
<title>t1&#45;&gt;p2</title>
<path fill="none" stroke="black" d="M117.68,-34.5C124.82,-34.5 144.16,-34.5 160.97,-34.5"/>
<polygon fill="black" stroke="black" points="160.51,-38 170.51,-34.5 160.51,-31 160.51,-38"/>
</g>
</g>
</svg>
