<?xml version="1.0" encoding="us-ascii" standalone="no"?><svg xmlns="http://www.w3.org/2000/svg" xmlns:xlink="http://www.w3.org/1999/xlink" contentStyleType="text/css" height="374px" preserveAspectRatio="none" style="width:624px;height:374px;" version="1.1" viewBox="0 0 624 374" width="624px" zoomAndPan="magnify"><defs/><g><!--cluster pnet--><g id="cluster_pnet"><polygon fill="none" points="16,6,54,6,61,28.4883,607,28.4883,607,367.91,16,367.91,16,6" style="stroke:#000000;stroke-width:1.5;"/><line style="stroke:#000000;stroke-width:1.5;" x1="16" x2="61" y1="28.4883" y2="28.4883"/><text fill="#000000" font-family="sans-serif" font-size="14" font-weight="bold" lengthAdjust="spacing" textLength="32" x="20" y="21.5352">pnet</text></g><!--cluster net--><g id="cluster_net"><polygon fill="none" points="287,49,316,49,323,71.4883,349,71.4883,349,126.49,287,126.49,287,49" style="stroke:#000000;stroke-width:1.5;"/><line style="stroke:#000000;stroke-width:1.5;" x1="287" x2="323" y1="71.4883" y2="71.4883"/><text fill="#000000" font-family="sans-serif" font-size="14" font-weight="bold" lengthAdjust="spacing" textLength="23" x="291" y="64.5352">net</text></g><!--cluster inhibited--><g id="cluster_inhibited"><polygon fill="none" points="40,150.49,111,150.49,118,172.9783,583,172.9783,583,343.91,40,343.91,40,150.49" style="stroke:#000000;stroke-width:1.5;"/><line style="stroke:#000000;stroke-width:1.5;" x1="40" x2="118" y1="172.9783" y2="172.9783"/><text fill="#000000" font-family="sans-serif" font-size="14" font-weight="bold" lengthAdjust="spacing" textLength="65" x="44" y="166.0252">inhibited</text></g><!--class Arc--><g id="elem_Arc"><rect codeLine="10" fill="#F1F1F1" height="26.4883" id="Arc" rx="2.5" ry="2.5" style="stroke:#181818;stroke-width:0.5;" width="29" x="303.5" y="84"/><text fill="#000000" font-family="sans-serif" font-size="14" font-style="italic" lengthAdjust="spacing" textLength="23" x="306.5" y="102.5352">Arc</text></g><!--class InhibitorArc--><g id="elem_InhibitorArc"><rect codeLine="13" fill="#F1F1F1" height="26.4883" id="InhibitorArc" rx="2.5" ry="2.5" style="stroke:#181818;stroke-width:0.5;" width="88" x="395" y="185.49"/><text fill="#000000" font-family="sans-serif" font-size="14" font-style="italic" lengthAdjust="spacing" textLength="82" x="398" y="204.0252">InhibitorArc</text></g><g id="elem_GMN9"><path d="M375.5,271.98 L375.5,327.9116 L566.5,327.9116 L566.5,281.98 L556.5,271.98 L375.5,271.98 " fill="#FEFFDD" style="stroke:#181818;stroke-width:0.5;"/><path d="M556.5,271.98 L556.5,281.98 L566.5,281.98 L556.5,271.98 " fill="#FEFFDD" style="stroke:#181818;stroke-width:1.0;"/><text fill="#000000" font-family="sans-serif" font-size="13" font-weight="bold" lengthAdjust="spacing" textLength="50" x="381.5" y="289.5484">context</text><text fill="#000000" font-family="sans-serif" font-size="13" lengthAdjust="spacing" textLength="75" x="435.5" y="289.5484">InhibitorArc</text><text fill="#000000" font-family="sans-serif" font-size="13" font-weight="bold" lengthAdjust="spacing" textLength="21" x="514.5" y="289.5484">inv</text><text fill="#000000" font-family="sans-serif" font-size="13" lengthAdjust="spacing" textLength="4" x="535.5" y="289.5484">:</text><text fill="#000000" font-family="sans-serif" font-size="13" lengthAdjust="spacing" textLength="132" x="389.5" y="304.8589">self.source.is_place()</text><text fill="#000000" font-family="sans-serif" font-size="13" font-weight="bold" lengthAdjust="spacing" textLength="26" x="525.5" y="304.8589">and</text><text fill="#000000" font-family="sans-serif" font-size="13" lengthAdjust="spacing" textLength="155" x="389.5" y="320.1695">self.target.is_transition()</text></g><!--class ResetArc--><g id="elem_ResetArc"><rect codeLine="21" fill="#F1F1F1" height="26.4883" id="ResetArc" rx="2.5" ry="2.5" style="stroke:#181818;stroke-width:0.5;" width="66" x="165" y="185.49"/><text fill="#000000" font-family="sans-serif" font-size="14" font-style="italic" lengthAdjust="spacing" textLength="60" x="168" y="204.0252">ResetArc</text></g><g id="elem_GMN15"><path d="M56.5,271.98 L56.5,327.9116 L275.5,327.9116 L275.5,281.98 L265.5,271.98 L56.5,271.98 " fill="#FEFFDD" style="stroke:#181818;stroke-width:0.5;"/><path d="M265.5,271.98 L265.5,281.98 L275.5,281.98 L265.5,271.98 " fill="#FEFFDD" style="stroke:#181818;stroke-width:1.0;"/><text fill="#000000" font-family="sans-serif" font-size="13" font-weight="bold" lengthAdjust="spacing" textLength="50" x="62.5" y="289.5484">context</text><text fill="#000000" font-family="sans-serif" font-size="13" lengthAdjust="spacing" textLength="55" x="116.5" y="289.5484">ResetArc</text><text fill="#000000" font-family="sans-serif" font-size="13" font-weight="bold" lengthAdjust="spacing" textLength="21" x="175.5" y="289.5484">inv</text><text fill="#000000" font-family="sans-serif" font-size="13" lengthAdjust="spacing" textLength="4" x="196.5" y="289.5484">:</text><text fill="#000000" font-family="sans-serif" font-size="13" lengthAdjust="spacing" textLength="160" x="70.5" y="304.8589">self.source.is_transition()</text><text fill="#000000" font-family="sans-serif" font-size="13" font-weight="bold" lengthAdjust="spacing" textLength="26" x="234.5" y="304.8589">and</text><text fill="#000000" font-family="sans-serif" font-size="13" lengthAdjust="spacing" textLength="127" x="70.5" y="320.1695">self.target.is_place()</text></g><!--reverse link Arc to InhibitorArc--><g id="link_Arc_InhibitorArc"><path codeLine="14" d="M346.7422,121.8837 C369.8322,140.8737 400.26,165.88 423.66,185.12 " fill="none" id="Arc-backto-InhibitorArc" style="stroke:#181818;stroke-width:1.0;"/><polygon fill="none" points="332.84,110.45,342.931,126.5177,350.5534,117.2496,332.84,110.45" style="stroke:#181818;stroke-width:1.0;"/></g><!--link InhibitorArc to GMN9--><g id="link_InhibitorArc_GMN9"><path d="M443.05,212.3 C447.83,227.11 455.91,252.15 462.15,271.51 " fill="none" id="InhibitorArc-GMN9" style="stroke:#181818;stroke-width:1.0;stroke-dasharray:7.0,7.0;"/></g><!--reverse link Arc to ResetArc--><g id="link_Arc_ResetArc"><path codeLine="22" d="M289.4318,121.937 C266.5218,140.927 236.42,165.88 213.21,185.12 " fill="none" id="Arc-backto-ResetArc" style="stroke:#181818;stroke-width:1.0;"/><polygon fill="none" points="303.29,110.45,285.6028,117.3176,293.2608,126.5564,303.29,110.45" style="stroke:#181818;stroke-width:1.0;"/></g><!--link ResetArc to GMN15--><g id="link_ResetArc_GMN15"><path d="M193.95,212.3 C189.17,227.11 181.09,252.15 174.85,271.51 " fill="none" id="ResetArc-GMN15" style="stroke:#181818;stroke-width:1.0;stroke-dasharray:7.0,7.0;"/></g><!--SRC=[XP7FQiCm3CRlVWeTMqDBTzrXC7RQTIzGd4H9JHt9sCfOwFBkSzBLIxf0TJ3uqqz_FZkUBNaJJ0k5ASzDu8wgDtOSG8AXc598ecAcelGEqnbiALthPXbd2QNt29vTFrvcEU8A8tfuEXoKEjaA0LilFRJO5XYYKZuDDqsgJJtWeY35JVfJnh0a66fJ8ho6SbA71MtfP0ihMAtMl5-p758nN8PCBFHTvtVVBxd_6CI2KB08jy3r0i-CrYMdGL-YzRAVrfO-jNxE9414L-yZTw74lOr7xz9ocsqY3LLQtuDYGeCoWjEVMB5CcsscaAffGRLY-2CzkzoPpTfZepTqrMJkyzZWVE_7Bd-Vux_1wtSFFm00]--></g></svg>