<?xml version="1.0" encoding="UTF-8" standalone="no"?>
<!DOCTYPE svg PUBLIC "-//W3C//DTD SVG 1.1//EN"
 "http://www.w3.org/Graphics/SVG/1.1/DTD/svg11.dtd">
<!-- Generated by graphviz version 9.0.0 (20230911.1827)
 -->
<!-- Pages: 1 -->
<svg width="360pt" height="61pt"
 viewBox="0.00 0.00 359.90 60.50" xmlns="http://www.w3.org/2000/svg" xmlns:xlink="http://www.w3.org/1999/xlink">
<g id="net0" class="graph" transform="scale(1 1) rotate(0) translate(4 56.5)">
<!-- p1 -->
<g id="net0_node1" class="node">
<title>p1</title>
<ellipse fill="none" stroke="black" cx="31.5" cy="-34.5" rx="18" ry="18"/>
<text text-anchor="middle" x="31.5" y="-29.45" font-family="Times,serif" font-size="14.00">â—</text>
<text text-anchor="middle" x="6.75" y="-3.2" font-family="Times,serif" font-size="14.00">p1</text>
</g>
<!-- t1 -->
<g id="net0_node4" class="node">
<title>t1</title>
<polygon fill="lightgreen" stroke="darkgreen" points="110.7,-52.5 103.5,-52.5 103.5,-16.5 110.7,-16.5 110.7,-52.5"/>
<text text-anchor="middle" x="98.25" y="-3.2" font-family="Times,serif" font-size="14.00">t1</text>
</g>
<!-- p1&#45;&gt;t1 -->
<g id="net0_edge1" class="edge">
<title>p1&#45;&gt;t1</title>
<path fill="none" stroke="black" d="M49.94,-34.5C62.76,-34.5 79.95,-34.5 91.92,-34.5"/>
<polygon fill="black" stroke="black" points="91.78,-38 101.78,-34.5 91.78,-31 91.78,-38"/>
</g>
<!-- p2 -->
<g id="net0_node2" class="node">
<title>p2</title>
<ellipse fill="none" stroke="darkgrey" cx="182.7" cy="-34.5" rx="18" ry="18"/>
<text text-anchor="middle" x="157.95" y="-3.2" font-family="Times,serif" font-size="14.00">p2</text>
</g>
<!-- t2 -->
<g id="net0_node5" class="node">
<title>t2</title>
<polygon fill="lightgrey" stroke="darkgrey" points="261.9,-52.5 254.7,-52.5 254.7,-16.5 261.9,-16.5 261.9,-52.5"/>
<text text-anchor="middle" x="249.45" y="-3.2" font-family="Times,serif" font-size="14.00">t2</text>
</g>
<!-- p2&#45;&gt;t2 -->
<g id="net0_edge3" class="edge">
<title>p2&#45;&gt;t2</title>
<path fill="none" stroke="black" d="M201.14,-34.5C213.96,-34.5 231.15,-34.5 243.12,-34.5"/>
<polygon fill="black" stroke="black" points="242.98,-38 252.98,-34.5 242.98,-31 242.98,-38"/>
</g>
<!-- p3 -->
<g id="net0_node3" class="node">
<title>p3</title>
<ellipse fill="none" stroke="darkgrey" cx="333.9" cy="-34.5" rx="18" ry="18"/>
<text text-anchor="middle" x="309.15" y="-3.2" font-family="Times,serif" font-size="14.00">p3</text>
</g>
<!-- t1&#45;&gt;p2 -->
<g id="net0_edge2" class="edge">
<title>t1&#45;&gt;p2</title>
<path fill="none" stroke="black" d="M110.9,-34.5C117.87,-34.5 136.65,-34.5 153.12,-34.5"/>
<polygon fill="black" stroke="black" points="152.99,-38 162.99,-34.5 152.99,-31 152.99,-38"/>
</g>
<!-- t2&#45;&gt;p3 -->
<g id="net0_edge4" class="edge">
<title>t2&#45;&gt;p3</title>
<path fill="none" stroke="black" d="M262.1,-34.5C269.07,-34.5 287.85,-34.5 304.32,-34.5"/>
<polygon fill="black" stroke="black" points="304.19,-38 314.19,-34.5 304.19,-31 304.19,-38"/>
</g>
</g>
</svg>
